%TF.GenerationSoftware,KiCad,Pcbnew,9.0.4*%
%TF.CreationDate,2025-10-23T10:28:18-03:00*%
%TF.ProjectId,auto,6175746f-2e6b-4696-9361-645f70636258,rev?*%
%TF.SameCoordinates,Original*%
%TF.FileFunction,Drillmap*%
%TF.FilePolarity,Positive*%
%FSLAX45Y45*%
G04 Gerber Fmt 4.5, Leading zero omitted, Abs format (unit mm)*
G04 Created by KiCad (PCBNEW 9.0.4) date 2025-10-23 10:28:18*
%MOMM*%
%LPD*%
G01*
G04 APERTURE LIST*
%ADD10C,0.100000*%
%ADD11C,0.200000*%
%ADD12C,0.110000*%
%ADD13C,0.120000*%
%ADD14C,0.130000*%
%ADD15C,0.180000*%
G04 APERTURE END LIST*
D10*
X7170100Y-2897400D02*
X19195100Y-2897400D01*
X19195100Y-11176000D01*
X7170100Y-11176000D01*
X7170100Y-2897400D01*
D11*
D10*
X8423200Y-4079800D02*
X8493200Y-4149800D01*
X8493200Y-4079800D02*
X8423200Y-4149800D01*
X8931200Y-4079800D02*
X9001200Y-4149800D01*
X9001200Y-4079800D02*
X8931200Y-4149800D01*
X9884000Y-7852000D02*
X9954000Y-7922000D01*
X9954000Y-7852000D02*
X9884000Y-7922000D01*
X10646000Y-7852000D02*
X10716000Y-7922000D01*
X10716000Y-7852000D02*
X10646000Y-7922000D01*
X15408200Y-3825800D02*
X15478200Y-3895800D01*
X15478200Y-3825800D02*
X15408200Y-3895800D01*
X15916200Y-3825800D02*
X15986200Y-3895800D01*
X15986200Y-3825800D02*
X15916200Y-3895800D01*
X16066000Y-8969000D02*
X16136000Y-9039000D01*
X16136000Y-8969000D02*
X16066000Y-9039000D01*
X16116000Y-8604000D02*
X16186000Y-8674000D01*
X16186000Y-8604000D02*
X16116000Y-8674000D01*
X16574000Y-8969000D02*
X16644000Y-9039000D01*
X16644000Y-8969000D02*
X16574000Y-9039000D01*
X16624000Y-8604000D02*
X16694000Y-8674000D01*
X16694000Y-8604000D02*
X16624000Y-8674000D01*
X17480400Y-8816400D02*
X17550400Y-8886400D01*
X17550400Y-8816400D02*
X17480400Y-8886400D01*
X17717400Y-9089400D02*
X17787400Y-9159400D01*
X17787400Y-9089400D02*
X17717400Y-9159400D01*
X17717400Y-9597400D02*
X17787400Y-9667400D01*
X17787400Y-9597400D02*
X17717400Y-9667400D01*
X17813400Y-7477400D02*
X17883400Y-7547400D01*
X17883400Y-7477400D02*
X17813400Y-7547400D01*
X17813400Y-7985400D02*
X17883400Y-8055400D01*
X17883400Y-7985400D02*
X17813400Y-8055400D01*
X17988400Y-8816400D02*
X18058400Y-8886400D01*
X18058400Y-8816400D02*
X17988400Y-8886400D01*
X18458000Y-8985000D02*
X18528000Y-9055000D01*
X18528000Y-8985000D02*
X18458000Y-9055000D01*
X18966000Y-8985000D02*
X19036000Y-9055000D01*
X19036000Y-8985000D02*
X18966000Y-9055000D01*
X17712900Y-8459400D02*
G75*
G02*
X17637900Y-8459400I-37500J0D01*
G01*
X17637900Y-8459400D02*
G75*
G02*
X17712900Y-8459400I37500J0D01*
G01*
X17839900Y-8459400D02*
G75*
G02*
X17764900Y-8459400I-37500J0D01*
G01*
X17764900Y-8459400D02*
G75*
G02*
X17839900Y-8459400I37500J0D01*
G01*
X17842900Y-7137400D02*
G75*
G02*
X17767900Y-7137400I-37500J0D01*
G01*
X17767900Y-7137400D02*
G75*
G02*
X17842900Y-7137400I37500J0D01*
G01*
X17966900Y-8459400D02*
G75*
G02*
X17891900Y-8459400I-37500J0D01*
G01*
X17891900Y-8459400D02*
G75*
G02*
X17966900Y-8459400I37500J0D01*
G01*
X17969900Y-7137400D02*
G75*
G02*
X17894900Y-7137400I-37500J0D01*
G01*
X17894900Y-7137400D02*
G75*
G02*
X17969900Y-7137400I37500J0D01*
G01*
X18096900Y-7137400D02*
G75*
G02*
X18021900Y-7137400I-37500J0D01*
G01*
X18021900Y-7137400D02*
G75*
G02*
X18096900Y-7137400I37500J0D01*
G01*
X8712200Y-4074800D02*
X8712200Y-4154800D01*
X8672200Y-4114800D02*
X8752200Y-4114800D01*
X8712200Y-7072000D02*
X8712200Y-7152000D01*
X8672200Y-7112000D02*
X8752200Y-7112000D01*
X9915000Y-8260000D02*
X9915000Y-8340000D01*
X9875000Y-8300000D02*
X9955000Y-8300000D01*
X10058400Y-8786500D02*
X10058400Y-8866500D01*
X10018400Y-8826500D02*
X10098400Y-8826500D01*
X10058400Y-9599300D02*
X10058400Y-9679300D01*
X10018400Y-9639300D02*
X10098400Y-9639300D01*
X10169000Y-8260000D02*
X10169000Y-8340000D01*
X10129000Y-8300000D02*
X10209000Y-8300000D01*
X10423000Y-8260000D02*
X10423000Y-8340000D01*
X10383000Y-8300000D02*
X10463000Y-8300000D01*
X10677000Y-8260000D02*
X10677000Y-8340000D01*
X10637000Y-8300000D02*
X10717000Y-8300000D01*
X10893000Y-7847000D02*
X10893000Y-7927000D01*
X10853000Y-7887000D02*
X10933000Y-7887000D01*
X10894000Y-5298000D02*
X10894000Y-5378000D01*
X10854000Y-5338000D02*
X10934000Y-5338000D01*
X12889000Y-4385000D02*
X12889000Y-4465000D01*
X12849000Y-4425000D02*
X12929000Y-4425000D01*
X12889000Y-4639000D02*
X12889000Y-4719000D01*
X12849000Y-4679000D02*
X12929000Y-4679000D01*
X12889000Y-4893000D02*
X12889000Y-4973000D01*
X12849000Y-4933000D02*
X12929000Y-4933000D01*
X12889000Y-5147000D02*
X12889000Y-5227000D01*
X12849000Y-5187000D02*
X12929000Y-5187000D01*
X12889000Y-5401000D02*
X12889000Y-5481000D01*
X12849000Y-5441000D02*
X12929000Y-5441000D01*
X12889000Y-5655000D02*
X12889000Y-5735000D01*
X12849000Y-5695000D02*
X12929000Y-5695000D01*
X12889000Y-5909000D02*
X12889000Y-5989000D01*
X12849000Y-5949000D02*
X12929000Y-5949000D01*
X12889000Y-6163000D02*
X12889000Y-6243000D01*
X12849000Y-6203000D02*
X12929000Y-6203000D01*
X12889000Y-6417000D02*
X12889000Y-6497000D01*
X12849000Y-6457000D02*
X12929000Y-6457000D01*
X12889000Y-6671000D02*
X12889000Y-6751000D01*
X12849000Y-6711000D02*
X12929000Y-6711000D01*
X12889000Y-6925000D02*
X12889000Y-7005000D01*
X12849000Y-6965000D02*
X12929000Y-6965000D01*
X12889000Y-7179000D02*
X12889000Y-7259000D01*
X12849000Y-7219000D02*
X12929000Y-7219000D01*
X12889000Y-7433000D02*
X12889000Y-7513000D01*
X12849000Y-7473000D02*
X12929000Y-7473000D01*
X12889000Y-7687000D02*
X12889000Y-7767000D01*
X12849000Y-7727000D02*
X12929000Y-7727000D01*
X12889000Y-7941000D02*
X12889000Y-8021000D01*
X12849000Y-7981000D02*
X12929000Y-7981000D01*
X12889000Y-8195000D02*
X12889000Y-8275000D01*
X12849000Y-8235000D02*
X12929000Y-8235000D01*
X12889000Y-8449000D02*
X12889000Y-8529000D01*
X12849000Y-8489000D02*
X12929000Y-8489000D01*
X12889000Y-8703000D02*
X12889000Y-8783000D01*
X12849000Y-8743000D02*
X12929000Y-8743000D01*
X12889000Y-8957000D02*
X12889000Y-9037000D01*
X12849000Y-8997000D02*
X12929000Y-8997000D01*
X15175000Y-4385000D02*
X15175000Y-4465000D01*
X15135000Y-4425000D02*
X15215000Y-4425000D01*
X15175000Y-4639000D02*
X15175000Y-4719000D01*
X15135000Y-4679000D02*
X15215000Y-4679000D01*
X15175000Y-4893000D02*
X15175000Y-4973000D01*
X15135000Y-4933000D02*
X15215000Y-4933000D01*
X15175000Y-5147000D02*
X15175000Y-5227000D01*
X15135000Y-5187000D02*
X15215000Y-5187000D01*
X15175000Y-5401000D02*
X15175000Y-5481000D01*
X15135000Y-5441000D02*
X15215000Y-5441000D01*
X15175000Y-5655000D02*
X15175000Y-5735000D01*
X15135000Y-5695000D02*
X15215000Y-5695000D01*
X15175000Y-5909000D02*
X15175000Y-5989000D01*
X15135000Y-5949000D02*
X15215000Y-5949000D01*
X15175000Y-6163000D02*
X15175000Y-6243000D01*
X15135000Y-6203000D02*
X15215000Y-6203000D01*
X15175000Y-6417000D02*
X15175000Y-6497000D01*
X15135000Y-6457000D02*
X15215000Y-6457000D01*
X15175000Y-6671000D02*
X15175000Y-6751000D01*
X15135000Y-6711000D02*
X15215000Y-6711000D01*
X15175000Y-6925000D02*
X15175000Y-7005000D01*
X15135000Y-6965000D02*
X15215000Y-6965000D01*
X15175000Y-7179000D02*
X15175000Y-7259000D01*
X15135000Y-7219000D02*
X15215000Y-7219000D01*
X15175000Y-7433000D02*
X15175000Y-7513000D01*
X15135000Y-7473000D02*
X15215000Y-7473000D01*
X15175000Y-7687000D02*
X15175000Y-7767000D01*
X15135000Y-7727000D02*
X15215000Y-7727000D01*
X15175000Y-7941000D02*
X15175000Y-8021000D01*
X15135000Y-7981000D02*
X15215000Y-7981000D01*
X15175000Y-8195000D02*
X15175000Y-8275000D01*
X15135000Y-8235000D02*
X15215000Y-8235000D01*
X15175000Y-8449000D02*
X15175000Y-8529000D01*
X15135000Y-8489000D02*
X15215000Y-8489000D01*
X15175000Y-8703000D02*
X15175000Y-8783000D01*
X15135000Y-8743000D02*
X15215000Y-8743000D01*
X15175000Y-8957000D02*
X15175000Y-9037000D01*
X15135000Y-8997000D02*
X15215000Y-8997000D01*
X15544800Y-7808600D02*
X15544800Y-7888600D01*
X15504800Y-7848600D02*
X15584800Y-7848600D01*
X15900400Y-8596000D02*
X15900400Y-8676000D01*
X15860400Y-8636000D02*
X15940400Y-8636000D01*
X16640000Y-8121000D02*
X16640000Y-8201000D01*
X16600000Y-8161000D02*
X16680000Y-8161000D01*
X17402000Y-8121000D02*
X17402000Y-8201000D01*
X17362000Y-8161000D02*
X17442000Y-8161000D01*
X18252400Y-7516400D02*
X18252400Y-7596400D01*
X18212400Y-7556400D02*
X18292400Y-7556400D01*
X18252400Y-8532400D02*
X18252400Y-8612400D01*
X18212400Y-8572400D02*
X18292400Y-8572400D01*
X8481820Y-3846320D02*
X8481820Y-3782680D01*
X8418180Y-3782680D01*
X8418180Y-3846320D01*
X8481820Y-3846320D01*
X8735820Y-3846320D02*
X8735820Y-3782680D01*
X8672180Y-3782680D01*
X8672180Y-3846320D01*
X8735820Y-3846320D01*
X8989820Y-3846320D02*
X8989820Y-3782680D01*
X8926180Y-3782680D01*
X8926180Y-3846320D01*
X8989820Y-3846320D01*
X9243820Y-3846320D02*
X9243820Y-3782680D01*
X9180180Y-3782680D01*
X9180180Y-3846320D01*
X9243820Y-3846320D01*
X9497820Y-3846320D02*
X9497820Y-3782680D01*
X9434180Y-3782680D01*
X9434180Y-3846320D01*
X9497820Y-3846320D01*
X9751820Y-3846320D02*
X9751820Y-3782680D01*
X9688180Y-3782680D01*
X9688180Y-3846320D01*
X9751820Y-3846320D01*
X8280000Y-5381000D02*
X8330000Y-5331000D01*
X8280000Y-5281000D01*
X8230000Y-5331000D01*
X8280000Y-5381000D01*
X8280000Y-5635000D02*
X8330000Y-5585000D01*
X8280000Y-5535000D01*
X8230000Y-5585000D01*
X8280000Y-5635000D01*
X8280000Y-5889000D02*
X8330000Y-5839000D01*
X8280000Y-5789000D01*
X8230000Y-5839000D01*
X8280000Y-5889000D01*
X8280000Y-6143000D02*
X8330000Y-6093000D01*
X8280000Y-6043000D01*
X8230000Y-6093000D01*
X8280000Y-6143000D01*
X8280000Y-6397000D02*
X8330000Y-6347000D01*
X8280000Y-6297000D01*
X8230000Y-6347000D01*
X8280000Y-6397000D01*
X8280000Y-6651000D02*
X8330000Y-6601000D01*
X8280000Y-6551000D01*
X8230000Y-6601000D01*
X8280000Y-6651000D01*
X8280000Y-6905000D02*
X8330000Y-6855000D01*
X8280000Y-6805000D01*
X8230000Y-6855000D01*
X8280000Y-6905000D01*
X8280000Y-7159000D02*
X8330000Y-7109000D01*
X8280000Y-7059000D01*
X8230000Y-7109000D01*
X8280000Y-7159000D01*
X8280000Y-7413000D02*
X8330000Y-7363000D01*
X8280000Y-7313000D01*
X8230000Y-7363000D01*
X8280000Y-7413000D01*
X8280000Y-7667000D02*
X8330000Y-7617000D01*
X8280000Y-7567000D01*
X8230000Y-7617000D01*
X8280000Y-7667000D01*
X8280000Y-7921000D02*
X8330000Y-7871000D01*
X8280000Y-7821000D01*
X8230000Y-7871000D01*
X8280000Y-7921000D01*
X8280000Y-8175000D02*
X8330000Y-8125000D01*
X8280000Y-8075000D01*
X8230000Y-8125000D01*
X8280000Y-8175000D01*
X8280000Y-8429000D02*
X8330000Y-8379000D01*
X8280000Y-8329000D01*
X8230000Y-8379000D01*
X8280000Y-8429000D01*
X8280000Y-8683000D02*
X8330000Y-8633000D01*
X8280000Y-8583000D01*
X8230000Y-8633000D01*
X8280000Y-8683000D01*
X9660000Y-7410000D02*
X9710000Y-7360000D01*
X9660000Y-7310000D01*
X9610000Y-7360000D01*
X9660000Y-7410000D01*
X9720000Y-3616000D02*
X9770000Y-3566000D01*
X9720000Y-3516000D01*
X9670000Y-3566000D01*
X9720000Y-3616000D01*
X10370000Y-4500000D02*
X10420000Y-4450000D01*
X10370000Y-4400000D01*
X10320000Y-4450000D01*
X10370000Y-4500000D01*
X10624000Y-4500000D02*
X10674000Y-4450000D01*
X10624000Y-4400000D01*
X10574000Y-4450000D01*
X10624000Y-4500000D01*
X10878000Y-4500000D02*
X10928000Y-4450000D01*
X10878000Y-4400000D01*
X10828000Y-4450000D01*
X10878000Y-4500000D01*
X11132000Y-4500000D02*
X11182000Y-4450000D01*
X11132000Y-4400000D01*
X11082000Y-4450000D01*
X11132000Y-4500000D01*
X11386000Y-4500000D02*
X11436000Y-4450000D01*
X11386000Y-4400000D01*
X11336000Y-4450000D01*
X11386000Y-4500000D01*
X11640000Y-4500000D02*
X11690000Y-4450000D01*
X11640000Y-4400000D01*
X11590000Y-4450000D01*
X11640000Y-4500000D01*
X11894000Y-4500000D02*
X11944000Y-4450000D01*
X11894000Y-4400000D01*
X11844000Y-4450000D01*
X11894000Y-4500000D01*
X12148000Y-4500000D02*
X12198000Y-4450000D01*
X12148000Y-4400000D01*
X12098000Y-4450000D01*
X12148000Y-4500000D01*
X17622000Y-6675750D02*
X17672000Y-6625750D01*
X17622000Y-6575750D01*
X17572000Y-6625750D01*
X17622000Y-6675750D01*
X17622000Y-6929750D02*
X17672000Y-6879750D01*
X17622000Y-6829750D01*
X17572000Y-6879750D01*
X17622000Y-6929750D01*
X17622000Y-7183750D02*
X17672000Y-7133750D01*
X17622000Y-7083750D01*
X17572000Y-7133750D01*
X17622000Y-7183750D01*
X17622000Y-7437750D02*
X17672000Y-7387750D01*
X17622000Y-7337750D01*
X17572000Y-7387750D01*
X17622000Y-7437750D01*
X18794000Y-6988000D02*
X18844000Y-6938000D01*
X18794000Y-6888000D01*
X18744000Y-6938000D01*
X18794000Y-6988000D01*
X18794000Y-7242000D02*
X18844000Y-7192000D01*
X18794000Y-7142000D01*
X18744000Y-7192000D01*
X18794000Y-7242000D01*
X18794000Y-7496000D02*
X18844000Y-7446000D01*
X18794000Y-7396000D01*
X18744000Y-7446000D01*
X18794000Y-7496000D01*
X18794000Y-7750000D02*
X18844000Y-7700000D01*
X18794000Y-7650000D01*
X18744000Y-7700000D01*
X18794000Y-7750000D01*
D12*
X16785200Y-9876400D02*
X16895200Y-9986400D01*
X16895200Y-9876400D02*
X16785200Y-9986400D01*
X16895200Y-9931400D02*
G75*
G02*
X16785200Y-9931400I-55000J0D01*
G01*
X16785200Y-9931400D02*
G75*
G02*
X16895200Y-9931400I55000J0D01*
G01*
X17039200Y-9876400D02*
X17149200Y-9986400D01*
X17149200Y-9876400D02*
X17039200Y-9986400D01*
X17149200Y-9931400D02*
G75*
G02*
X17039200Y-9931400I-55000J0D01*
G01*
X17039200Y-9931400D02*
G75*
G02*
X17149200Y-9931400I55000J0D01*
G01*
X17293200Y-9876400D02*
X17403200Y-9986400D01*
X17403200Y-9876400D02*
X17293200Y-9986400D01*
X17403200Y-9931400D02*
G75*
G02*
X17293200Y-9931400I-55000J0D01*
G01*
X17293200Y-9931400D02*
G75*
G02*
X17403200Y-9931400I55000J0D01*
G01*
D13*
X12589000Y-10107000D02*
X12709000Y-10227000D01*
X12709000Y-10107000D02*
X12589000Y-10227000D01*
X12649000Y-10107000D02*
X12649000Y-10227000D01*
X12589000Y-10167000D02*
X12709000Y-10167000D01*
X12589000Y-10607000D02*
X12709000Y-10727000D01*
X12709000Y-10607000D02*
X12589000Y-10727000D01*
X12649000Y-10607000D02*
X12649000Y-10727000D01*
X12589000Y-10667000D02*
X12709000Y-10667000D01*
X13390000Y-3340000D02*
X13510000Y-3460000D01*
X13510000Y-3340000D02*
X13390000Y-3460000D01*
X13450000Y-3340000D02*
X13450000Y-3460000D01*
X13390000Y-3400000D02*
X13510000Y-3400000D01*
X13390000Y-3840000D02*
X13510000Y-3960000D01*
X13510000Y-3840000D02*
X13390000Y-3960000D01*
X13450000Y-3840000D02*
X13450000Y-3960000D01*
X13390000Y-3900000D02*
X13510000Y-3900000D01*
X13839000Y-10107000D02*
X13959000Y-10227000D01*
X13959000Y-10107000D02*
X13839000Y-10227000D01*
X13899000Y-10107000D02*
X13899000Y-10227000D01*
X13839000Y-10167000D02*
X13959000Y-10167000D01*
X13839000Y-10607000D02*
X13959000Y-10727000D01*
X13959000Y-10607000D02*
X13839000Y-10727000D01*
X13899000Y-10607000D02*
X13899000Y-10727000D01*
X13839000Y-10667000D02*
X13959000Y-10667000D01*
X14313000Y-10113000D02*
X14433000Y-10233000D01*
X14433000Y-10113000D02*
X14313000Y-10233000D01*
X14373000Y-10113000D02*
X14373000Y-10233000D01*
X14313000Y-10173000D02*
X14433000Y-10173000D01*
X14313000Y-10613000D02*
X14433000Y-10733000D01*
X14433000Y-10613000D02*
X14313000Y-10733000D01*
X14373000Y-10613000D02*
X14373000Y-10733000D01*
X14313000Y-10673000D02*
X14433000Y-10673000D01*
X14640000Y-3340000D02*
X14760000Y-3460000D01*
X14760000Y-3340000D02*
X14640000Y-3460000D01*
X14700000Y-3340000D02*
X14700000Y-3460000D01*
X14640000Y-3400000D02*
X14760000Y-3400000D01*
X14640000Y-3840000D02*
X14760000Y-3960000D01*
X14760000Y-3840000D02*
X14640000Y-3960000D01*
X14700000Y-3840000D02*
X14700000Y-3960000D01*
X14640000Y-3900000D02*
X14760000Y-3900000D01*
X15563000Y-10113000D02*
X15683000Y-10233000D01*
X15683000Y-10113000D02*
X15563000Y-10233000D01*
X15623000Y-10113000D02*
X15623000Y-10233000D01*
X15563000Y-10173000D02*
X15683000Y-10173000D01*
X15563000Y-10613000D02*
X15683000Y-10733000D01*
X15683000Y-10613000D02*
X15563000Y-10733000D01*
X15623000Y-10613000D02*
X15623000Y-10733000D01*
X15563000Y-10673000D02*
X15683000Y-10673000D01*
D14*
X16098000Y-6005000D02*
X16228000Y-6135000D01*
X16228000Y-6005000D02*
X16098000Y-6135000D01*
X16208962Y-6115962D02*
X16208962Y-6024038D01*
X16117038Y-6024038D01*
X16117038Y-6115962D01*
X16208962Y-6115962D01*
X16098000Y-6525000D02*
X16228000Y-6655000D01*
X16228000Y-6525000D02*
X16098000Y-6655000D01*
X16208962Y-6635962D02*
X16208962Y-6544038D01*
X16117038Y-6544038D01*
X16117038Y-6635962D01*
X16208962Y-6635962D01*
X16098000Y-7535000D02*
X16228000Y-7665000D01*
X16228000Y-7535000D02*
X16098000Y-7665000D01*
X16208962Y-7645962D02*
X16208962Y-7554038D01*
X16117038Y-7554038D01*
X16117038Y-7645962D01*
X16208962Y-7645962D01*
X16098000Y-8055000D02*
X16228000Y-8185000D01*
X16228000Y-8055000D02*
X16098000Y-8185000D01*
X16208962Y-8165962D02*
X16208962Y-8074038D01*
X16117038Y-8074038D01*
X16117038Y-8165962D01*
X16208962Y-8165962D01*
D15*
X18519000Y-5924000D02*
X18699000Y-6104000D01*
X18699000Y-5924000D02*
X18519000Y-6104000D01*
X18609000Y-6104000D02*
X18699000Y-6014000D01*
X18609000Y-5924000D01*
X18519000Y-6014000D01*
X18609000Y-6104000D01*
X18519000Y-6320000D02*
X18699000Y-6500000D01*
X18699000Y-6320000D02*
X18519000Y-6500000D01*
X18609000Y-6500000D02*
X18699000Y-6410000D01*
X18609000Y-6320000D01*
X18519000Y-6410000D01*
X18609000Y-6500000D01*
X18522000Y-4177000D02*
X18702000Y-4357000D01*
X18702000Y-4177000D02*
X18522000Y-4357000D01*
X18612000Y-4357000D02*
X18702000Y-4267000D01*
X18612000Y-4177000D01*
X18522000Y-4267000D01*
X18612000Y-4357000D01*
X18522000Y-4573000D02*
X18702000Y-4753000D01*
X18702000Y-4573000D02*
X18522000Y-4753000D01*
X18612000Y-4753000D02*
X18702000Y-4663000D01*
X18612000Y-4573000D01*
X18522000Y-4663000D01*
X18612000Y-4753000D01*
X18522000Y-4969000D02*
X18702000Y-5149000D01*
X18702000Y-4969000D02*
X18522000Y-5149000D01*
X18612000Y-5149000D02*
X18702000Y-5059000D01*
X18612000Y-4969000D01*
X18522000Y-5059000D01*
X18612000Y-5149000D01*
X18522000Y-5365000D02*
X18702000Y-5545000D01*
X18702000Y-5365000D02*
X18522000Y-5545000D01*
X18612000Y-5545000D02*
X18702000Y-5455000D01*
X18612000Y-5365000D01*
X18522000Y-5455000D01*
X18612000Y-5545000D01*
D11*
X7425877Y-11492484D02*
X7425877Y-11292484D01*
X7425877Y-11292484D02*
X7473496Y-11292484D01*
X7473496Y-11292484D02*
X7502067Y-11302008D01*
X7502067Y-11302008D02*
X7521115Y-11321055D01*
X7521115Y-11321055D02*
X7530639Y-11340103D01*
X7530639Y-11340103D02*
X7540162Y-11378198D01*
X7540162Y-11378198D02*
X7540162Y-11406769D01*
X7540162Y-11406769D02*
X7530639Y-11444865D01*
X7530639Y-11444865D02*
X7521115Y-11463912D01*
X7521115Y-11463912D02*
X7502067Y-11482960D01*
X7502067Y-11482960D02*
X7473496Y-11492484D01*
X7473496Y-11492484D02*
X7425877Y-11492484D01*
X7625877Y-11492484D02*
X7625877Y-11359150D01*
X7625877Y-11397246D02*
X7635401Y-11378198D01*
X7635401Y-11378198D02*
X7644924Y-11368674D01*
X7644924Y-11368674D02*
X7663972Y-11359150D01*
X7663972Y-11359150D02*
X7683020Y-11359150D01*
X7749686Y-11492484D02*
X7749686Y-11359150D01*
X7749686Y-11292484D02*
X7740162Y-11302008D01*
X7740162Y-11302008D02*
X7749686Y-11311531D01*
X7749686Y-11311531D02*
X7759210Y-11302008D01*
X7759210Y-11302008D02*
X7749686Y-11292484D01*
X7749686Y-11292484D02*
X7749686Y-11311531D01*
X7873496Y-11492484D02*
X7854448Y-11482960D01*
X7854448Y-11482960D02*
X7844924Y-11463912D01*
X7844924Y-11463912D02*
X7844924Y-11292484D01*
X7978258Y-11492484D02*
X7959210Y-11482960D01*
X7959210Y-11482960D02*
X7949686Y-11463912D01*
X7949686Y-11463912D02*
X7949686Y-11292484D01*
X8206829Y-11492484D02*
X8206829Y-11292484D01*
X8206829Y-11292484D02*
X8273496Y-11435341D01*
X8273496Y-11435341D02*
X8340162Y-11292484D01*
X8340162Y-11292484D02*
X8340162Y-11492484D01*
X8521115Y-11492484D02*
X8521115Y-11387722D01*
X8521115Y-11387722D02*
X8511591Y-11368674D01*
X8511591Y-11368674D02*
X8492544Y-11359150D01*
X8492544Y-11359150D02*
X8454448Y-11359150D01*
X8454448Y-11359150D02*
X8435401Y-11368674D01*
X8521115Y-11482960D02*
X8502067Y-11492484D01*
X8502067Y-11492484D02*
X8454448Y-11492484D01*
X8454448Y-11492484D02*
X8435401Y-11482960D01*
X8435401Y-11482960D02*
X8425877Y-11463912D01*
X8425877Y-11463912D02*
X8425877Y-11444865D01*
X8425877Y-11444865D02*
X8435401Y-11425817D01*
X8435401Y-11425817D02*
X8454448Y-11416293D01*
X8454448Y-11416293D02*
X8502067Y-11416293D01*
X8502067Y-11416293D02*
X8521115Y-11406769D01*
X8616353Y-11359150D02*
X8616353Y-11559150D01*
X8616353Y-11368674D02*
X8635401Y-11359150D01*
X8635401Y-11359150D02*
X8673496Y-11359150D01*
X8673496Y-11359150D02*
X8692544Y-11368674D01*
X8692544Y-11368674D02*
X8702067Y-11378198D01*
X8702067Y-11378198D02*
X8711591Y-11397246D01*
X8711591Y-11397246D02*
X8711591Y-11454388D01*
X8711591Y-11454388D02*
X8702067Y-11473436D01*
X8702067Y-11473436D02*
X8692544Y-11482960D01*
X8692544Y-11482960D02*
X8673496Y-11492484D01*
X8673496Y-11492484D02*
X8635401Y-11492484D01*
X8635401Y-11492484D02*
X8616353Y-11482960D01*
X8797305Y-11473436D02*
X8806829Y-11482960D01*
X8806829Y-11482960D02*
X8797305Y-11492484D01*
X8797305Y-11492484D02*
X8787782Y-11482960D01*
X8787782Y-11482960D02*
X8797305Y-11473436D01*
X8797305Y-11473436D02*
X8797305Y-11492484D01*
X8797305Y-11368674D02*
X8806829Y-11378198D01*
X8806829Y-11378198D02*
X8797305Y-11387722D01*
X8797305Y-11387722D02*
X8787782Y-11378198D01*
X8787782Y-11378198D02*
X8797305Y-11368674D01*
X8797305Y-11368674D02*
X8797305Y-11387722D01*
D10*
X7095100Y-11786000D02*
X7165100Y-11856000D01*
X7165100Y-11786000D02*
X7095100Y-11856000D01*
D11*
X7463972Y-11712484D02*
X7483020Y-11712484D01*
X7483020Y-11712484D02*
X7502067Y-11722008D01*
X7502067Y-11722008D02*
X7511591Y-11731531D01*
X7511591Y-11731531D02*
X7521115Y-11750579D01*
X7521115Y-11750579D02*
X7530639Y-11788674D01*
X7530639Y-11788674D02*
X7530639Y-11836293D01*
X7530639Y-11836293D02*
X7521115Y-11874388D01*
X7521115Y-11874388D02*
X7511591Y-11893436D01*
X7511591Y-11893436D02*
X7502067Y-11902960D01*
X7502067Y-11902960D02*
X7483020Y-11912484D01*
X7483020Y-11912484D02*
X7463972Y-11912484D01*
X7463972Y-11912484D02*
X7444924Y-11902960D01*
X7444924Y-11902960D02*
X7435401Y-11893436D01*
X7435401Y-11893436D02*
X7425877Y-11874388D01*
X7425877Y-11874388D02*
X7416353Y-11836293D01*
X7416353Y-11836293D02*
X7416353Y-11788674D01*
X7416353Y-11788674D02*
X7425877Y-11750579D01*
X7425877Y-11750579D02*
X7435401Y-11731531D01*
X7435401Y-11731531D02*
X7444924Y-11722008D01*
X7444924Y-11722008D02*
X7463972Y-11712484D01*
X7616353Y-11893436D02*
X7625877Y-11902960D01*
X7625877Y-11902960D02*
X7616353Y-11912484D01*
X7616353Y-11912484D02*
X7606829Y-11902960D01*
X7606829Y-11902960D02*
X7616353Y-11893436D01*
X7616353Y-11893436D02*
X7616353Y-11912484D01*
X7692543Y-11712484D02*
X7825877Y-11712484D01*
X7825877Y-11712484D02*
X7740162Y-11912484D01*
X7940162Y-11712484D02*
X7959210Y-11712484D01*
X7959210Y-11712484D02*
X7978258Y-11722008D01*
X7978258Y-11722008D02*
X7987782Y-11731531D01*
X7987782Y-11731531D02*
X7997305Y-11750579D01*
X7997305Y-11750579D02*
X8006829Y-11788674D01*
X8006829Y-11788674D02*
X8006829Y-11836293D01*
X8006829Y-11836293D02*
X7997305Y-11874388D01*
X7997305Y-11874388D02*
X7987782Y-11893436D01*
X7987782Y-11893436D02*
X7978258Y-11902960D01*
X7978258Y-11902960D02*
X7959210Y-11912484D01*
X7959210Y-11912484D02*
X7940162Y-11912484D01*
X7940162Y-11912484D02*
X7921115Y-11902960D01*
X7921115Y-11902960D02*
X7911591Y-11893436D01*
X7911591Y-11893436D02*
X7902067Y-11874388D01*
X7902067Y-11874388D02*
X7892543Y-11836293D01*
X7892543Y-11836293D02*
X7892543Y-11788674D01*
X7892543Y-11788674D02*
X7902067Y-11750579D01*
X7902067Y-11750579D02*
X7911591Y-11731531D01*
X7911591Y-11731531D02*
X7921115Y-11722008D01*
X7921115Y-11722008D02*
X7940162Y-11712484D01*
X8130639Y-11712484D02*
X8149686Y-11712484D01*
X8149686Y-11712484D02*
X8168734Y-11722008D01*
X8168734Y-11722008D02*
X8178258Y-11731531D01*
X8178258Y-11731531D02*
X8187782Y-11750579D01*
X8187782Y-11750579D02*
X8197305Y-11788674D01*
X8197305Y-11788674D02*
X8197305Y-11836293D01*
X8197305Y-11836293D02*
X8187782Y-11874388D01*
X8187782Y-11874388D02*
X8178258Y-11893436D01*
X8178258Y-11893436D02*
X8168734Y-11902960D01*
X8168734Y-11902960D02*
X8149686Y-11912484D01*
X8149686Y-11912484D02*
X8130639Y-11912484D01*
X8130639Y-11912484D02*
X8111591Y-11902960D01*
X8111591Y-11902960D02*
X8102067Y-11893436D01*
X8102067Y-11893436D02*
X8092543Y-11874388D01*
X8092543Y-11874388D02*
X8083020Y-11836293D01*
X8083020Y-11836293D02*
X8083020Y-11788674D01*
X8083020Y-11788674D02*
X8092543Y-11750579D01*
X8092543Y-11750579D02*
X8102067Y-11731531D01*
X8102067Y-11731531D02*
X8111591Y-11722008D01*
X8111591Y-11722008D02*
X8130639Y-11712484D01*
X8283020Y-11912484D02*
X8283020Y-11779150D01*
X8283020Y-11798198D02*
X8292543Y-11788674D01*
X8292543Y-11788674D02*
X8311591Y-11779150D01*
X8311591Y-11779150D02*
X8340163Y-11779150D01*
X8340163Y-11779150D02*
X8359210Y-11788674D01*
X8359210Y-11788674D02*
X8368734Y-11807722D01*
X8368734Y-11807722D02*
X8368734Y-11912484D01*
X8368734Y-11807722D02*
X8378258Y-11788674D01*
X8378258Y-11788674D02*
X8397305Y-11779150D01*
X8397305Y-11779150D02*
X8425877Y-11779150D01*
X8425877Y-11779150D02*
X8444925Y-11788674D01*
X8444925Y-11788674D02*
X8454448Y-11807722D01*
X8454448Y-11807722D02*
X8454448Y-11912484D01*
X8549686Y-11912484D02*
X8549686Y-11779150D01*
X8549686Y-11798198D02*
X8559210Y-11788674D01*
X8559210Y-11788674D02*
X8578258Y-11779150D01*
X8578258Y-11779150D02*
X8606829Y-11779150D01*
X8606829Y-11779150D02*
X8625877Y-11788674D01*
X8625877Y-11788674D02*
X8635401Y-11807722D01*
X8635401Y-11807722D02*
X8635401Y-11912484D01*
X8635401Y-11807722D02*
X8644925Y-11788674D01*
X8644925Y-11788674D02*
X8663972Y-11779150D01*
X8663972Y-11779150D02*
X8692544Y-11779150D01*
X8692544Y-11779150D02*
X8711591Y-11788674D01*
X8711591Y-11788674D02*
X8721115Y-11807722D01*
X8721115Y-11807722D02*
X8721115Y-11912484D01*
X9111591Y-11702960D02*
X8940163Y-11960103D01*
X9368734Y-11712484D02*
X9387782Y-11712484D01*
X9387782Y-11712484D02*
X9406829Y-11722008D01*
X9406829Y-11722008D02*
X9416353Y-11731531D01*
X9416353Y-11731531D02*
X9425877Y-11750579D01*
X9425877Y-11750579D02*
X9435401Y-11788674D01*
X9435401Y-11788674D02*
X9435401Y-11836293D01*
X9435401Y-11836293D02*
X9425877Y-11874388D01*
X9425877Y-11874388D02*
X9416353Y-11893436D01*
X9416353Y-11893436D02*
X9406829Y-11902960D01*
X9406829Y-11902960D02*
X9387782Y-11912484D01*
X9387782Y-11912484D02*
X9368734Y-11912484D01*
X9368734Y-11912484D02*
X9349687Y-11902960D01*
X9349687Y-11902960D02*
X9340163Y-11893436D01*
X9340163Y-11893436D02*
X9330639Y-11874388D01*
X9330639Y-11874388D02*
X9321115Y-11836293D01*
X9321115Y-11836293D02*
X9321115Y-11788674D01*
X9321115Y-11788674D02*
X9330639Y-11750579D01*
X9330639Y-11750579D02*
X9340163Y-11731531D01*
X9340163Y-11731531D02*
X9349687Y-11722008D01*
X9349687Y-11722008D02*
X9368734Y-11712484D01*
X9521115Y-11893436D02*
X9530639Y-11902960D01*
X9530639Y-11902960D02*
X9521115Y-11912484D01*
X9521115Y-11912484D02*
X9511591Y-11902960D01*
X9511591Y-11902960D02*
X9521115Y-11893436D01*
X9521115Y-11893436D02*
X9521115Y-11912484D01*
X9654448Y-11712484D02*
X9673496Y-11712484D01*
X9673496Y-11712484D02*
X9692544Y-11722008D01*
X9692544Y-11722008D02*
X9702068Y-11731531D01*
X9702068Y-11731531D02*
X9711591Y-11750579D01*
X9711591Y-11750579D02*
X9721115Y-11788674D01*
X9721115Y-11788674D02*
X9721115Y-11836293D01*
X9721115Y-11836293D02*
X9711591Y-11874388D01*
X9711591Y-11874388D02*
X9702068Y-11893436D01*
X9702068Y-11893436D02*
X9692544Y-11902960D01*
X9692544Y-11902960D02*
X9673496Y-11912484D01*
X9673496Y-11912484D02*
X9654448Y-11912484D01*
X9654448Y-11912484D02*
X9635401Y-11902960D01*
X9635401Y-11902960D02*
X9625877Y-11893436D01*
X9625877Y-11893436D02*
X9616353Y-11874388D01*
X9616353Y-11874388D02*
X9606829Y-11836293D01*
X9606829Y-11836293D02*
X9606829Y-11788674D01*
X9606829Y-11788674D02*
X9616353Y-11750579D01*
X9616353Y-11750579D02*
X9625877Y-11731531D01*
X9625877Y-11731531D02*
X9635401Y-11722008D01*
X9635401Y-11722008D02*
X9654448Y-11712484D01*
X9797306Y-11731531D02*
X9806829Y-11722008D01*
X9806829Y-11722008D02*
X9825877Y-11712484D01*
X9825877Y-11712484D02*
X9873496Y-11712484D01*
X9873496Y-11712484D02*
X9892544Y-11722008D01*
X9892544Y-11722008D02*
X9902068Y-11731531D01*
X9902068Y-11731531D02*
X9911591Y-11750579D01*
X9911591Y-11750579D02*
X9911591Y-11769627D01*
X9911591Y-11769627D02*
X9902068Y-11798198D01*
X9902068Y-11798198D02*
X9787782Y-11912484D01*
X9787782Y-11912484D02*
X9911591Y-11912484D01*
X9978258Y-11712484D02*
X10111591Y-11712484D01*
X10111591Y-11712484D02*
X10025877Y-11912484D01*
X10273496Y-11712484D02*
X10235401Y-11712484D01*
X10235401Y-11712484D02*
X10216353Y-11722008D01*
X10216353Y-11722008D02*
X10206829Y-11731531D01*
X10206829Y-11731531D02*
X10187782Y-11760103D01*
X10187782Y-11760103D02*
X10178258Y-11798198D01*
X10178258Y-11798198D02*
X10178258Y-11874388D01*
X10178258Y-11874388D02*
X10187782Y-11893436D01*
X10187782Y-11893436D02*
X10197306Y-11902960D01*
X10197306Y-11902960D02*
X10216353Y-11912484D01*
X10216353Y-11912484D02*
X10254449Y-11912484D01*
X10254449Y-11912484D02*
X10273496Y-11902960D01*
X10273496Y-11902960D02*
X10283020Y-11893436D01*
X10283020Y-11893436D02*
X10292544Y-11874388D01*
X10292544Y-11874388D02*
X10292544Y-11826769D01*
X10292544Y-11826769D02*
X10283020Y-11807722D01*
X10283020Y-11807722D02*
X10273496Y-11798198D01*
X10273496Y-11798198D02*
X10254449Y-11788674D01*
X10254449Y-11788674D02*
X10216353Y-11788674D01*
X10216353Y-11788674D02*
X10197306Y-11798198D01*
X10197306Y-11798198D02*
X10187782Y-11807722D01*
X10187782Y-11807722D02*
X10178258Y-11826769D01*
X10368734Y-11712484D02*
X10368734Y-11750579D01*
X10444925Y-11712484D02*
X10444925Y-11750579D01*
X10740163Y-11988674D02*
X10730639Y-11979150D01*
X10730639Y-11979150D02*
X10711591Y-11950579D01*
X10711591Y-11950579D02*
X10702068Y-11931531D01*
X10702068Y-11931531D02*
X10692544Y-11902960D01*
X10692544Y-11902960D02*
X10683020Y-11855341D01*
X10683020Y-11855341D02*
X10683020Y-11817246D01*
X10683020Y-11817246D02*
X10692544Y-11769627D01*
X10692544Y-11769627D02*
X10702068Y-11741055D01*
X10702068Y-11741055D02*
X10711591Y-11722008D01*
X10711591Y-11722008D02*
X10730639Y-11693436D01*
X10730639Y-11693436D02*
X10740163Y-11683912D01*
X10921115Y-11912484D02*
X10806830Y-11912484D01*
X10863972Y-11912484D02*
X10863972Y-11712484D01*
X10863972Y-11712484D02*
X10844925Y-11741055D01*
X10844925Y-11741055D02*
X10825877Y-11760103D01*
X10825877Y-11760103D02*
X10806830Y-11769627D01*
X11035401Y-11798198D02*
X11016353Y-11788674D01*
X11016353Y-11788674D02*
X11006830Y-11779150D01*
X11006830Y-11779150D02*
X10997306Y-11760103D01*
X10997306Y-11760103D02*
X10997306Y-11750579D01*
X10997306Y-11750579D02*
X11006830Y-11731531D01*
X11006830Y-11731531D02*
X11016353Y-11722008D01*
X11016353Y-11722008D02*
X11035401Y-11712484D01*
X11035401Y-11712484D02*
X11073496Y-11712484D01*
X11073496Y-11712484D02*
X11092544Y-11722008D01*
X11092544Y-11722008D02*
X11102068Y-11731531D01*
X11102068Y-11731531D02*
X11111591Y-11750579D01*
X11111591Y-11750579D02*
X11111591Y-11760103D01*
X11111591Y-11760103D02*
X11102068Y-11779150D01*
X11102068Y-11779150D02*
X11092544Y-11788674D01*
X11092544Y-11788674D02*
X11073496Y-11798198D01*
X11073496Y-11798198D02*
X11035401Y-11798198D01*
X11035401Y-11798198D02*
X11016353Y-11807722D01*
X11016353Y-11807722D02*
X11006830Y-11817246D01*
X11006830Y-11817246D02*
X10997306Y-11836293D01*
X10997306Y-11836293D02*
X10997306Y-11874388D01*
X10997306Y-11874388D02*
X11006830Y-11893436D01*
X11006830Y-11893436D02*
X11016353Y-11902960D01*
X11016353Y-11902960D02*
X11035401Y-11912484D01*
X11035401Y-11912484D02*
X11073496Y-11912484D01*
X11073496Y-11912484D02*
X11092544Y-11902960D01*
X11092544Y-11902960D02*
X11102068Y-11893436D01*
X11102068Y-11893436D02*
X11111591Y-11874388D01*
X11111591Y-11874388D02*
X11111591Y-11836293D01*
X11111591Y-11836293D02*
X11102068Y-11817246D01*
X11102068Y-11817246D02*
X11092544Y-11807722D01*
X11092544Y-11807722D02*
X11073496Y-11798198D01*
X11349687Y-11912484D02*
X11349687Y-11712484D01*
X11435401Y-11912484D02*
X11435401Y-11807722D01*
X11435401Y-11807722D02*
X11425877Y-11788674D01*
X11425877Y-11788674D02*
X11406830Y-11779150D01*
X11406830Y-11779150D02*
X11378258Y-11779150D01*
X11378258Y-11779150D02*
X11359210Y-11788674D01*
X11359210Y-11788674D02*
X11349687Y-11798198D01*
X11559210Y-11912484D02*
X11540163Y-11902960D01*
X11540163Y-11902960D02*
X11530639Y-11893436D01*
X11530639Y-11893436D02*
X11521115Y-11874388D01*
X11521115Y-11874388D02*
X11521115Y-11817246D01*
X11521115Y-11817246D02*
X11530639Y-11798198D01*
X11530639Y-11798198D02*
X11540163Y-11788674D01*
X11540163Y-11788674D02*
X11559210Y-11779150D01*
X11559210Y-11779150D02*
X11587782Y-11779150D01*
X11587782Y-11779150D02*
X11606830Y-11788674D01*
X11606830Y-11788674D02*
X11616353Y-11798198D01*
X11616353Y-11798198D02*
X11625877Y-11817246D01*
X11625877Y-11817246D02*
X11625877Y-11874388D01*
X11625877Y-11874388D02*
X11616353Y-11893436D01*
X11616353Y-11893436D02*
X11606830Y-11902960D01*
X11606830Y-11902960D02*
X11587782Y-11912484D01*
X11587782Y-11912484D02*
X11559210Y-11912484D01*
X11740163Y-11912484D02*
X11721115Y-11902960D01*
X11721115Y-11902960D02*
X11711591Y-11883912D01*
X11711591Y-11883912D02*
X11711591Y-11712484D01*
X11892544Y-11902960D02*
X11873496Y-11912484D01*
X11873496Y-11912484D02*
X11835401Y-11912484D01*
X11835401Y-11912484D02*
X11816353Y-11902960D01*
X11816353Y-11902960D02*
X11806830Y-11883912D01*
X11806830Y-11883912D02*
X11806830Y-11807722D01*
X11806830Y-11807722D02*
X11816353Y-11788674D01*
X11816353Y-11788674D02*
X11835401Y-11779150D01*
X11835401Y-11779150D02*
X11873496Y-11779150D01*
X11873496Y-11779150D02*
X11892544Y-11788674D01*
X11892544Y-11788674D02*
X11902068Y-11807722D01*
X11902068Y-11807722D02*
X11902068Y-11826769D01*
X11902068Y-11826769D02*
X11806830Y-11845817D01*
X11978258Y-11902960D02*
X11997306Y-11912484D01*
X11997306Y-11912484D02*
X12035401Y-11912484D01*
X12035401Y-11912484D02*
X12054449Y-11902960D01*
X12054449Y-11902960D02*
X12063972Y-11883912D01*
X12063972Y-11883912D02*
X12063972Y-11874388D01*
X12063972Y-11874388D02*
X12054449Y-11855341D01*
X12054449Y-11855341D02*
X12035401Y-11845817D01*
X12035401Y-11845817D02*
X12006830Y-11845817D01*
X12006830Y-11845817D02*
X11987782Y-11836293D01*
X11987782Y-11836293D02*
X11978258Y-11817246D01*
X11978258Y-11817246D02*
X11978258Y-11807722D01*
X11978258Y-11807722D02*
X11987782Y-11788674D01*
X11987782Y-11788674D02*
X12006830Y-11779150D01*
X12006830Y-11779150D02*
X12035401Y-11779150D01*
X12035401Y-11779150D02*
X12054449Y-11788674D01*
X12130639Y-11988674D02*
X12140163Y-11979150D01*
X12140163Y-11979150D02*
X12159211Y-11950579D01*
X12159211Y-11950579D02*
X12168734Y-11931531D01*
X12168734Y-11931531D02*
X12178258Y-11902960D01*
X12178258Y-11902960D02*
X12187782Y-11855341D01*
X12187782Y-11855341D02*
X12187782Y-11817246D01*
X12187782Y-11817246D02*
X12178258Y-11769627D01*
X12178258Y-11769627D02*
X12168734Y-11741055D01*
X12168734Y-11741055D02*
X12159211Y-11722008D01*
X12159211Y-11722008D02*
X12140163Y-11693436D01*
X12140163Y-11693436D02*
X12130639Y-11683912D01*
D10*
X7165100Y-12085000D02*
G75*
G02*
X7090100Y-12085000I-37500J0D01*
G01*
X7090100Y-12085000D02*
G75*
G02*
X7165100Y-12085000I37500J0D01*
G01*
D11*
X7463972Y-11976484D02*
X7483020Y-11976484D01*
X7483020Y-11976484D02*
X7502067Y-11986008D01*
X7502067Y-11986008D02*
X7511591Y-11995531D01*
X7511591Y-11995531D02*
X7521115Y-12014579D01*
X7521115Y-12014579D02*
X7530639Y-12052674D01*
X7530639Y-12052674D02*
X7530639Y-12100293D01*
X7530639Y-12100293D02*
X7521115Y-12138388D01*
X7521115Y-12138388D02*
X7511591Y-12157436D01*
X7511591Y-12157436D02*
X7502067Y-12166960D01*
X7502067Y-12166960D02*
X7483020Y-12176484D01*
X7483020Y-12176484D02*
X7463972Y-12176484D01*
X7463972Y-12176484D02*
X7444924Y-12166960D01*
X7444924Y-12166960D02*
X7435401Y-12157436D01*
X7435401Y-12157436D02*
X7425877Y-12138388D01*
X7425877Y-12138388D02*
X7416353Y-12100293D01*
X7416353Y-12100293D02*
X7416353Y-12052674D01*
X7416353Y-12052674D02*
X7425877Y-12014579D01*
X7425877Y-12014579D02*
X7435401Y-11995531D01*
X7435401Y-11995531D02*
X7444924Y-11986008D01*
X7444924Y-11986008D02*
X7463972Y-11976484D01*
X7616353Y-12157436D02*
X7625877Y-12166960D01*
X7625877Y-12166960D02*
X7616353Y-12176484D01*
X7616353Y-12176484D02*
X7606829Y-12166960D01*
X7606829Y-12166960D02*
X7616353Y-12157436D01*
X7616353Y-12157436D02*
X7616353Y-12176484D01*
X7692543Y-11976484D02*
X7825877Y-11976484D01*
X7825877Y-11976484D02*
X7740162Y-12176484D01*
X7997305Y-11976484D02*
X7902067Y-11976484D01*
X7902067Y-11976484D02*
X7892543Y-12071722D01*
X7892543Y-12071722D02*
X7902067Y-12062198D01*
X7902067Y-12062198D02*
X7921115Y-12052674D01*
X7921115Y-12052674D02*
X7968734Y-12052674D01*
X7968734Y-12052674D02*
X7987782Y-12062198D01*
X7987782Y-12062198D02*
X7997305Y-12071722D01*
X7997305Y-12071722D02*
X8006829Y-12090769D01*
X8006829Y-12090769D02*
X8006829Y-12138388D01*
X8006829Y-12138388D02*
X7997305Y-12157436D01*
X7997305Y-12157436D02*
X7987782Y-12166960D01*
X7987782Y-12166960D02*
X7968734Y-12176484D01*
X7968734Y-12176484D02*
X7921115Y-12176484D01*
X7921115Y-12176484D02*
X7902067Y-12166960D01*
X7902067Y-12166960D02*
X7892543Y-12157436D01*
X8130639Y-11976484D02*
X8149686Y-11976484D01*
X8149686Y-11976484D02*
X8168734Y-11986008D01*
X8168734Y-11986008D02*
X8178258Y-11995531D01*
X8178258Y-11995531D02*
X8187782Y-12014579D01*
X8187782Y-12014579D02*
X8197305Y-12052674D01*
X8197305Y-12052674D02*
X8197305Y-12100293D01*
X8197305Y-12100293D02*
X8187782Y-12138388D01*
X8187782Y-12138388D02*
X8178258Y-12157436D01*
X8178258Y-12157436D02*
X8168734Y-12166960D01*
X8168734Y-12166960D02*
X8149686Y-12176484D01*
X8149686Y-12176484D02*
X8130639Y-12176484D01*
X8130639Y-12176484D02*
X8111591Y-12166960D01*
X8111591Y-12166960D02*
X8102067Y-12157436D01*
X8102067Y-12157436D02*
X8092543Y-12138388D01*
X8092543Y-12138388D02*
X8083020Y-12100293D01*
X8083020Y-12100293D02*
X8083020Y-12052674D01*
X8083020Y-12052674D02*
X8092543Y-12014579D01*
X8092543Y-12014579D02*
X8102067Y-11995531D01*
X8102067Y-11995531D02*
X8111591Y-11986008D01*
X8111591Y-11986008D02*
X8130639Y-11976484D01*
X8283020Y-12176484D02*
X8283020Y-12043150D01*
X8283020Y-12062198D02*
X8292543Y-12052674D01*
X8292543Y-12052674D02*
X8311591Y-12043150D01*
X8311591Y-12043150D02*
X8340163Y-12043150D01*
X8340163Y-12043150D02*
X8359210Y-12052674D01*
X8359210Y-12052674D02*
X8368734Y-12071722D01*
X8368734Y-12071722D02*
X8368734Y-12176484D01*
X8368734Y-12071722D02*
X8378258Y-12052674D01*
X8378258Y-12052674D02*
X8397305Y-12043150D01*
X8397305Y-12043150D02*
X8425877Y-12043150D01*
X8425877Y-12043150D02*
X8444925Y-12052674D01*
X8444925Y-12052674D02*
X8454448Y-12071722D01*
X8454448Y-12071722D02*
X8454448Y-12176484D01*
X8549686Y-12176484D02*
X8549686Y-12043150D01*
X8549686Y-12062198D02*
X8559210Y-12052674D01*
X8559210Y-12052674D02*
X8578258Y-12043150D01*
X8578258Y-12043150D02*
X8606829Y-12043150D01*
X8606829Y-12043150D02*
X8625877Y-12052674D01*
X8625877Y-12052674D02*
X8635401Y-12071722D01*
X8635401Y-12071722D02*
X8635401Y-12176484D01*
X8635401Y-12071722D02*
X8644925Y-12052674D01*
X8644925Y-12052674D02*
X8663972Y-12043150D01*
X8663972Y-12043150D02*
X8692544Y-12043150D01*
X8692544Y-12043150D02*
X8711591Y-12052674D01*
X8711591Y-12052674D02*
X8721115Y-12071722D01*
X8721115Y-12071722D02*
X8721115Y-12176484D01*
X9111591Y-11966960D02*
X8940163Y-12224103D01*
X9368734Y-11976484D02*
X9387782Y-11976484D01*
X9387782Y-11976484D02*
X9406829Y-11986008D01*
X9406829Y-11986008D02*
X9416353Y-11995531D01*
X9416353Y-11995531D02*
X9425877Y-12014579D01*
X9425877Y-12014579D02*
X9435401Y-12052674D01*
X9435401Y-12052674D02*
X9435401Y-12100293D01*
X9435401Y-12100293D02*
X9425877Y-12138388D01*
X9425877Y-12138388D02*
X9416353Y-12157436D01*
X9416353Y-12157436D02*
X9406829Y-12166960D01*
X9406829Y-12166960D02*
X9387782Y-12176484D01*
X9387782Y-12176484D02*
X9368734Y-12176484D01*
X9368734Y-12176484D02*
X9349687Y-12166960D01*
X9349687Y-12166960D02*
X9340163Y-12157436D01*
X9340163Y-12157436D02*
X9330639Y-12138388D01*
X9330639Y-12138388D02*
X9321115Y-12100293D01*
X9321115Y-12100293D02*
X9321115Y-12052674D01*
X9321115Y-12052674D02*
X9330639Y-12014579D01*
X9330639Y-12014579D02*
X9340163Y-11995531D01*
X9340163Y-11995531D02*
X9349687Y-11986008D01*
X9349687Y-11986008D02*
X9368734Y-11976484D01*
X9521115Y-12157436D02*
X9530639Y-12166960D01*
X9530639Y-12166960D02*
X9521115Y-12176484D01*
X9521115Y-12176484D02*
X9511591Y-12166960D01*
X9511591Y-12166960D02*
X9521115Y-12157436D01*
X9521115Y-12157436D02*
X9521115Y-12176484D01*
X9654448Y-11976484D02*
X9673496Y-11976484D01*
X9673496Y-11976484D02*
X9692544Y-11986008D01*
X9692544Y-11986008D02*
X9702068Y-11995531D01*
X9702068Y-11995531D02*
X9711591Y-12014579D01*
X9711591Y-12014579D02*
X9721115Y-12052674D01*
X9721115Y-12052674D02*
X9721115Y-12100293D01*
X9721115Y-12100293D02*
X9711591Y-12138388D01*
X9711591Y-12138388D02*
X9702068Y-12157436D01*
X9702068Y-12157436D02*
X9692544Y-12166960D01*
X9692544Y-12166960D02*
X9673496Y-12176484D01*
X9673496Y-12176484D02*
X9654448Y-12176484D01*
X9654448Y-12176484D02*
X9635401Y-12166960D01*
X9635401Y-12166960D02*
X9625877Y-12157436D01*
X9625877Y-12157436D02*
X9616353Y-12138388D01*
X9616353Y-12138388D02*
X9606829Y-12100293D01*
X9606829Y-12100293D02*
X9606829Y-12052674D01*
X9606829Y-12052674D02*
X9616353Y-12014579D01*
X9616353Y-12014579D02*
X9625877Y-11995531D01*
X9625877Y-11995531D02*
X9635401Y-11986008D01*
X9635401Y-11986008D02*
X9654448Y-11976484D01*
X9797306Y-11995531D02*
X9806829Y-11986008D01*
X9806829Y-11986008D02*
X9825877Y-11976484D01*
X9825877Y-11976484D02*
X9873496Y-11976484D01*
X9873496Y-11976484D02*
X9892544Y-11986008D01*
X9892544Y-11986008D02*
X9902068Y-11995531D01*
X9902068Y-11995531D02*
X9911591Y-12014579D01*
X9911591Y-12014579D02*
X9911591Y-12033627D01*
X9911591Y-12033627D02*
X9902068Y-12062198D01*
X9902068Y-12062198D02*
X9787782Y-12176484D01*
X9787782Y-12176484D02*
X9911591Y-12176484D01*
X10006829Y-12176484D02*
X10044925Y-12176484D01*
X10044925Y-12176484D02*
X10063972Y-12166960D01*
X10063972Y-12166960D02*
X10073496Y-12157436D01*
X10073496Y-12157436D02*
X10092544Y-12128865D01*
X10092544Y-12128865D02*
X10102068Y-12090769D01*
X10102068Y-12090769D02*
X10102068Y-12014579D01*
X10102068Y-12014579D02*
X10092544Y-11995531D01*
X10092544Y-11995531D02*
X10083020Y-11986008D01*
X10083020Y-11986008D02*
X10063972Y-11976484D01*
X10063972Y-11976484D02*
X10025877Y-11976484D01*
X10025877Y-11976484D02*
X10006829Y-11986008D01*
X10006829Y-11986008D02*
X9997306Y-11995531D01*
X9997306Y-11995531D02*
X9987782Y-12014579D01*
X9987782Y-12014579D02*
X9987782Y-12062198D01*
X9987782Y-12062198D02*
X9997306Y-12081246D01*
X9997306Y-12081246D02*
X10006829Y-12090769D01*
X10006829Y-12090769D02*
X10025877Y-12100293D01*
X10025877Y-12100293D02*
X10063972Y-12100293D01*
X10063972Y-12100293D02*
X10083020Y-12090769D01*
X10083020Y-12090769D02*
X10092544Y-12081246D01*
X10092544Y-12081246D02*
X10102068Y-12062198D01*
X10283020Y-11976484D02*
X10187782Y-11976484D01*
X10187782Y-11976484D02*
X10178258Y-12071722D01*
X10178258Y-12071722D02*
X10187782Y-12062198D01*
X10187782Y-12062198D02*
X10206829Y-12052674D01*
X10206829Y-12052674D02*
X10254449Y-12052674D01*
X10254449Y-12052674D02*
X10273496Y-12062198D01*
X10273496Y-12062198D02*
X10283020Y-12071722D01*
X10283020Y-12071722D02*
X10292544Y-12090769D01*
X10292544Y-12090769D02*
X10292544Y-12138388D01*
X10292544Y-12138388D02*
X10283020Y-12157436D01*
X10283020Y-12157436D02*
X10273496Y-12166960D01*
X10273496Y-12166960D02*
X10254449Y-12176484D01*
X10254449Y-12176484D02*
X10206829Y-12176484D01*
X10206829Y-12176484D02*
X10187782Y-12166960D01*
X10187782Y-12166960D02*
X10178258Y-12157436D01*
X10368734Y-11976484D02*
X10368734Y-12014579D01*
X10444925Y-11976484D02*
X10444925Y-12014579D01*
X10740163Y-12252674D02*
X10730639Y-12243150D01*
X10730639Y-12243150D02*
X10711591Y-12214579D01*
X10711591Y-12214579D02*
X10702068Y-12195531D01*
X10702068Y-12195531D02*
X10692544Y-12166960D01*
X10692544Y-12166960D02*
X10683020Y-12119341D01*
X10683020Y-12119341D02*
X10683020Y-12081246D01*
X10683020Y-12081246D02*
X10692544Y-12033627D01*
X10692544Y-12033627D02*
X10702068Y-12005055D01*
X10702068Y-12005055D02*
X10711591Y-11986008D01*
X10711591Y-11986008D02*
X10730639Y-11957436D01*
X10730639Y-11957436D02*
X10740163Y-11947912D01*
X10902068Y-11976484D02*
X10863972Y-11976484D01*
X10863972Y-11976484D02*
X10844925Y-11986008D01*
X10844925Y-11986008D02*
X10835401Y-11995531D01*
X10835401Y-11995531D02*
X10816353Y-12024103D01*
X10816353Y-12024103D02*
X10806830Y-12062198D01*
X10806830Y-12062198D02*
X10806830Y-12138388D01*
X10806830Y-12138388D02*
X10816353Y-12157436D01*
X10816353Y-12157436D02*
X10825877Y-12166960D01*
X10825877Y-12166960D02*
X10844925Y-12176484D01*
X10844925Y-12176484D02*
X10883020Y-12176484D01*
X10883020Y-12176484D02*
X10902068Y-12166960D01*
X10902068Y-12166960D02*
X10911591Y-12157436D01*
X10911591Y-12157436D02*
X10921115Y-12138388D01*
X10921115Y-12138388D02*
X10921115Y-12090769D01*
X10921115Y-12090769D02*
X10911591Y-12071722D01*
X10911591Y-12071722D02*
X10902068Y-12062198D01*
X10902068Y-12062198D02*
X10883020Y-12052674D01*
X10883020Y-12052674D02*
X10844925Y-12052674D01*
X10844925Y-12052674D02*
X10825877Y-12062198D01*
X10825877Y-12062198D02*
X10816353Y-12071722D01*
X10816353Y-12071722D02*
X10806830Y-12090769D01*
X11159211Y-12176484D02*
X11159211Y-11976484D01*
X11244925Y-12176484D02*
X11244925Y-12071722D01*
X11244925Y-12071722D02*
X11235401Y-12052674D01*
X11235401Y-12052674D02*
X11216353Y-12043150D01*
X11216353Y-12043150D02*
X11187782Y-12043150D01*
X11187782Y-12043150D02*
X11168734Y-12052674D01*
X11168734Y-12052674D02*
X11159211Y-12062198D01*
X11368734Y-12176484D02*
X11349687Y-12166960D01*
X11349687Y-12166960D02*
X11340163Y-12157436D01*
X11340163Y-12157436D02*
X11330639Y-12138388D01*
X11330639Y-12138388D02*
X11330639Y-12081246D01*
X11330639Y-12081246D02*
X11340163Y-12062198D01*
X11340163Y-12062198D02*
X11349687Y-12052674D01*
X11349687Y-12052674D02*
X11368734Y-12043150D01*
X11368734Y-12043150D02*
X11397306Y-12043150D01*
X11397306Y-12043150D02*
X11416353Y-12052674D01*
X11416353Y-12052674D02*
X11425877Y-12062198D01*
X11425877Y-12062198D02*
X11435401Y-12081246D01*
X11435401Y-12081246D02*
X11435401Y-12138388D01*
X11435401Y-12138388D02*
X11425877Y-12157436D01*
X11425877Y-12157436D02*
X11416353Y-12166960D01*
X11416353Y-12166960D02*
X11397306Y-12176484D01*
X11397306Y-12176484D02*
X11368734Y-12176484D01*
X11549687Y-12176484D02*
X11530639Y-12166960D01*
X11530639Y-12166960D02*
X11521115Y-12147912D01*
X11521115Y-12147912D02*
X11521115Y-11976484D01*
X11702068Y-12166960D02*
X11683020Y-12176484D01*
X11683020Y-12176484D02*
X11644925Y-12176484D01*
X11644925Y-12176484D02*
X11625877Y-12166960D01*
X11625877Y-12166960D02*
X11616353Y-12147912D01*
X11616353Y-12147912D02*
X11616353Y-12071722D01*
X11616353Y-12071722D02*
X11625877Y-12052674D01*
X11625877Y-12052674D02*
X11644925Y-12043150D01*
X11644925Y-12043150D02*
X11683020Y-12043150D01*
X11683020Y-12043150D02*
X11702068Y-12052674D01*
X11702068Y-12052674D02*
X11711591Y-12071722D01*
X11711591Y-12071722D02*
X11711591Y-12090769D01*
X11711591Y-12090769D02*
X11616353Y-12109817D01*
X11787782Y-12166960D02*
X11806830Y-12176484D01*
X11806830Y-12176484D02*
X11844925Y-12176484D01*
X11844925Y-12176484D02*
X11863972Y-12166960D01*
X11863972Y-12166960D02*
X11873496Y-12147912D01*
X11873496Y-12147912D02*
X11873496Y-12138388D01*
X11873496Y-12138388D02*
X11863972Y-12119341D01*
X11863972Y-12119341D02*
X11844925Y-12109817D01*
X11844925Y-12109817D02*
X11816353Y-12109817D01*
X11816353Y-12109817D02*
X11797306Y-12100293D01*
X11797306Y-12100293D02*
X11787782Y-12081246D01*
X11787782Y-12081246D02*
X11787782Y-12071722D01*
X11787782Y-12071722D02*
X11797306Y-12052674D01*
X11797306Y-12052674D02*
X11816353Y-12043150D01*
X11816353Y-12043150D02*
X11844925Y-12043150D01*
X11844925Y-12043150D02*
X11863972Y-12052674D01*
X11940163Y-12252674D02*
X11949687Y-12243150D01*
X11949687Y-12243150D02*
X11968734Y-12214579D01*
X11968734Y-12214579D02*
X11978258Y-12195531D01*
X11978258Y-12195531D02*
X11987782Y-12166960D01*
X11987782Y-12166960D02*
X11997306Y-12119341D01*
X11997306Y-12119341D02*
X11997306Y-12081246D01*
X11997306Y-12081246D02*
X11987782Y-12033627D01*
X11987782Y-12033627D02*
X11978258Y-12005055D01*
X11978258Y-12005055D02*
X11968734Y-11986008D01*
X11968734Y-11986008D02*
X11949687Y-11957436D01*
X11949687Y-11957436D02*
X11940163Y-11947912D01*
D10*
X7125100Y-12309000D02*
X7125100Y-12389000D01*
X7085100Y-12349000D02*
X7165100Y-12349000D01*
D11*
X7463972Y-12240484D02*
X7483020Y-12240484D01*
X7483020Y-12240484D02*
X7502067Y-12250008D01*
X7502067Y-12250008D02*
X7511591Y-12259531D01*
X7511591Y-12259531D02*
X7521115Y-12278579D01*
X7521115Y-12278579D02*
X7530639Y-12316674D01*
X7530639Y-12316674D02*
X7530639Y-12364293D01*
X7530639Y-12364293D02*
X7521115Y-12402388D01*
X7521115Y-12402388D02*
X7511591Y-12421436D01*
X7511591Y-12421436D02*
X7502067Y-12430960D01*
X7502067Y-12430960D02*
X7483020Y-12440484D01*
X7483020Y-12440484D02*
X7463972Y-12440484D01*
X7463972Y-12440484D02*
X7444924Y-12430960D01*
X7444924Y-12430960D02*
X7435401Y-12421436D01*
X7435401Y-12421436D02*
X7425877Y-12402388D01*
X7425877Y-12402388D02*
X7416353Y-12364293D01*
X7416353Y-12364293D02*
X7416353Y-12316674D01*
X7416353Y-12316674D02*
X7425877Y-12278579D01*
X7425877Y-12278579D02*
X7435401Y-12259531D01*
X7435401Y-12259531D02*
X7444924Y-12250008D01*
X7444924Y-12250008D02*
X7463972Y-12240484D01*
X7616353Y-12421436D02*
X7625877Y-12430960D01*
X7625877Y-12430960D02*
X7616353Y-12440484D01*
X7616353Y-12440484D02*
X7606829Y-12430960D01*
X7606829Y-12430960D02*
X7616353Y-12421436D01*
X7616353Y-12421436D02*
X7616353Y-12440484D01*
X7740162Y-12326198D02*
X7721115Y-12316674D01*
X7721115Y-12316674D02*
X7711591Y-12307150D01*
X7711591Y-12307150D02*
X7702067Y-12288103D01*
X7702067Y-12288103D02*
X7702067Y-12278579D01*
X7702067Y-12278579D02*
X7711591Y-12259531D01*
X7711591Y-12259531D02*
X7721115Y-12250008D01*
X7721115Y-12250008D02*
X7740162Y-12240484D01*
X7740162Y-12240484D02*
X7778258Y-12240484D01*
X7778258Y-12240484D02*
X7797305Y-12250008D01*
X7797305Y-12250008D02*
X7806829Y-12259531D01*
X7806829Y-12259531D02*
X7816353Y-12278579D01*
X7816353Y-12278579D02*
X7816353Y-12288103D01*
X7816353Y-12288103D02*
X7806829Y-12307150D01*
X7806829Y-12307150D02*
X7797305Y-12316674D01*
X7797305Y-12316674D02*
X7778258Y-12326198D01*
X7778258Y-12326198D02*
X7740162Y-12326198D01*
X7740162Y-12326198D02*
X7721115Y-12335722D01*
X7721115Y-12335722D02*
X7711591Y-12345246D01*
X7711591Y-12345246D02*
X7702067Y-12364293D01*
X7702067Y-12364293D02*
X7702067Y-12402388D01*
X7702067Y-12402388D02*
X7711591Y-12421436D01*
X7711591Y-12421436D02*
X7721115Y-12430960D01*
X7721115Y-12430960D02*
X7740162Y-12440484D01*
X7740162Y-12440484D02*
X7778258Y-12440484D01*
X7778258Y-12440484D02*
X7797305Y-12430960D01*
X7797305Y-12430960D02*
X7806829Y-12421436D01*
X7806829Y-12421436D02*
X7816353Y-12402388D01*
X7816353Y-12402388D02*
X7816353Y-12364293D01*
X7816353Y-12364293D02*
X7806829Y-12345246D01*
X7806829Y-12345246D02*
X7797305Y-12335722D01*
X7797305Y-12335722D02*
X7778258Y-12326198D01*
X7940162Y-12240484D02*
X7959210Y-12240484D01*
X7959210Y-12240484D02*
X7978258Y-12250008D01*
X7978258Y-12250008D02*
X7987782Y-12259531D01*
X7987782Y-12259531D02*
X7997305Y-12278579D01*
X7997305Y-12278579D02*
X8006829Y-12316674D01*
X8006829Y-12316674D02*
X8006829Y-12364293D01*
X8006829Y-12364293D02*
X7997305Y-12402388D01*
X7997305Y-12402388D02*
X7987782Y-12421436D01*
X7987782Y-12421436D02*
X7978258Y-12430960D01*
X7978258Y-12430960D02*
X7959210Y-12440484D01*
X7959210Y-12440484D02*
X7940162Y-12440484D01*
X7940162Y-12440484D02*
X7921115Y-12430960D01*
X7921115Y-12430960D02*
X7911591Y-12421436D01*
X7911591Y-12421436D02*
X7902067Y-12402388D01*
X7902067Y-12402388D02*
X7892543Y-12364293D01*
X7892543Y-12364293D02*
X7892543Y-12316674D01*
X7892543Y-12316674D02*
X7902067Y-12278579D01*
X7902067Y-12278579D02*
X7911591Y-12259531D01*
X7911591Y-12259531D02*
X7921115Y-12250008D01*
X7921115Y-12250008D02*
X7940162Y-12240484D01*
X8130639Y-12240484D02*
X8149686Y-12240484D01*
X8149686Y-12240484D02*
X8168734Y-12250008D01*
X8168734Y-12250008D02*
X8178258Y-12259531D01*
X8178258Y-12259531D02*
X8187782Y-12278579D01*
X8187782Y-12278579D02*
X8197305Y-12316674D01*
X8197305Y-12316674D02*
X8197305Y-12364293D01*
X8197305Y-12364293D02*
X8187782Y-12402388D01*
X8187782Y-12402388D02*
X8178258Y-12421436D01*
X8178258Y-12421436D02*
X8168734Y-12430960D01*
X8168734Y-12430960D02*
X8149686Y-12440484D01*
X8149686Y-12440484D02*
X8130639Y-12440484D01*
X8130639Y-12440484D02*
X8111591Y-12430960D01*
X8111591Y-12430960D02*
X8102067Y-12421436D01*
X8102067Y-12421436D02*
X8092543Y-12402388D01*
X8092543Y-12402388D02*
X8083020Y-12364293D01*
X8083020Y-12364293D02*
X8083020Y-12316674D01*
X8083020Y-12316674D02*
X8092543Y-12278579D01*
X8092543Y-12278579D02*
X8102067Y-12259531D01*
X8102067Y-12259531D02*
X8111591Y-12250008D01*
X8111591Y-12250008D02*
X8130639Y-12240484D01*
X8283020Y-12440484D02*
X8283020Y-12307150D01*
X8283020Y-12326198D02*
X8292543Y-12316674D01*
X8292543Y-12316674D02*
X8311591Y-12307150D01*
X8311591Y-12307150D02*
X8340163Y-12307150D01*
X8340163Y-12307150D02*
X8359210Y-12316674D01*
X8359210Y-12316674D02*
X8368734Y-12335722D01*
X8368734Y-12335722D02*
X8368734Y-12440484D01*
X8368734Y-12335722D02*
X8378258Y-12316674D01*
X8378258Y-12316674D02*
X8397305Y-12307150D01*
X8397305Y-12307150D02*
X8425877Y-12307150D01*
X8425877Y-12307150D02*
X8444925Y-12316674D01*
X8444925Y-12316674D02*
X8454448Y-12335722D01*
X8454448Y-12335722D02*
X8454448Y-12440484D01*
X8549686Y-12440484D02*
X8549686Y-12307150D01*
X8549686Y-12326198D02*
X8559210Y-12316674D01*
X8559210Y-12316674D02*
X8578258Y-12307150D01*
X8578258Y-12307150D02*
X8606829Y-12307150D01*
X8606829Y-12307150D02*
X8625877Y-12316674D01*
X8625877Y-12316674D02*
X8635401Y-12335722D01*
X8635401Y-12335722D02*
X8635401Y-12440484D01*
X8635401Y-12335722D02*
X8644925Y-12316674D01*
X8644925Y-12316674D02*
X8663972Y-12307150D01*
X8663972Y-12307150D02*
X8692544Y-12307150D01*
X8692544Y-12307150D02*
X8711591Y-12316674D01*
X8711591Y-12316674D02*
X8721115Y-12335722D01*
X8721115Y-12335722D02*
X8721115Y-12440484D01*
X9111591Y-12230960D02*
X8940163Y-12488103D01*
X9368734Y-12240484D02*
X9387782Y-12240484D01*
X9387782Y-12240484D02*
X9406829Y-12250008D01*
X9406829Y-12250008D02*
X9416353Y-12259531D01*
X9416353Y-12259531D02*
X9425877Y-12278579D01*
X9425877Y-12278579D02*
X9435401Y-12316674D01*
X9435401Y-12316674D02*
X9435401Y-12364293D01*
X9435401Y-12364293D02*
X9425877Y-12402388D01*
X9425877Y-12402388D02*
X9416353Y-12421436D01*
X9416353Y-12421436D02*
X9406829Y-12430960D01*
X9406829Y-12430960D02*
X9387782Y-12440484D01*
X9387782Y-12440484D02*
X9368734Y-12440484D01*
X9368734Y-12440484D02*
X9349687Y-12430960D01*
X9349687Y-12430960D02*
X9340163Y-12421436D01*
X9340163Y-12421436D02*
X9330639Y-12402388D01*
X9330639Y-12402388D02*
X9321115Y-12364293D01*
X9321115Y-12364293D02*
X9321115Y-12316674D01*
X9321115Y-12316674D02*
X9330639Y-12278579D01*
X9330639Y-12278579D02*
X9340163Y-12259531D01*
X9340163Y-12259531D02*
X9349687Y-12250008D01*
X9349687Y-12250008D02*
X9368734Y-12240484D01*
X9521115Y-12421436D02*
X9530639Y-12430960D01*
X9530639Y-12430960D02*
X9521115Y-12440484D01*
X9521115Y-12440484D02*
X9511591Y-12430960D01*
X9511591Y-12430960D02*
X9521115Y-12421436D01*
X9521115Y-12421436D02*
X9521115Y-12440484D01*
X9654448Y-12240484D02*
X9673496Y-12240484D01*
X9673496Y-12240484D02*
X9692544Y-12250008D01*
X9692544Y-12250008D02*
X9702068Y-12259531D01*
X9702068Y-12259531D02*
X9711591Y-12278579D01*
X9711591Y-12278579D02*
X9721115Y-12316674D01*
X9721115Y-12316674D02*
X9721115Y-12364293D01*
X9721115Y-12364293D02*
X9711591Y-12402388D01*
X9711591Y-12402388D02*
X9702068Y-12421436D01*
X9702068Y-12421436D02*
X9692544Y-12430960D01*
X9692544Y-12430960D02*
X9673496Y-12440484D01*
X9673496Y-12440484D02*
X9654448Y-12440484D01*
X9654448Y-12440484D02*
X9635401Y-12430960D01*
X9635401Y-12430960D02*
X9625877Y-12421436D01*
X9625877Y-12421436D02*
X9616353Y-12402388D01*
X9616353Y-12402388D02*
X9606829Y-12364293D01*
X9606829Y-12364293D02*
X9606829Y-12316674D01*
X9606829Y-12316674D02*
X9616353Y-12278579D01*
X9616353Y-12278579D02*
X9625877Y-12259531D01*
X9625877Y-12259531D02*
X9635401Y-12250008D01*
X9635401Y-12250008D02*
X9654448Y-12240484D01*
X9787782Y-12240484D02*
X9911591Y-12240484D01*
X9911591Y-12240484D02*
X9844925Y-12316674D01*
X9844925Y-12316674D02*
X9873496Y-12316674D01*
X9873496Y-12316674D02*
X9892544Y-12326198D01*
X9892544Y-12326198D02*
X9902068Y-12335722D01*
X9902068Y-12335722D02*
X9911591Y-12354769D01*
X9911591Y-12354769D02*
X9911591Y-12402388D01*
X9911591Y-12402388D02*
X9902068Y-12421436D01*
X9902068Y-12421436D02*
X9892544Y-12430960D01*
X9892544Y-12430960D02*
X9873496Y-12440484D01*
X9873496Y-12440484D02*
X9816353Y-12440484D01*
X9816353Y-12440484D02*
X9797306Y-12430960D01*
X9797306Y-12430960D02*
X9787782Y-12421436D01*
X10102068Y-12440484D02*
X9987782Y-12440484D01*
X10044925Y-12440484D02*
X10044925Y-12240484D01*
X10044925Y-12240484D02*
X10025877Y-12269055D01*
X10025877Y-12269055D02*
X10006829Y-12288103D01*
X10006829Y-12288103D02*
X9987782Y-12297627D01*
X10283020Y-12240484D02*
X10187782Y-12240484D01*
X10187782Y-12240484D02*
X10178258Y-12335722D01*
X10178258Y-12335722D02*
X10187782Y-12326198D01*
X10187782Y-12326198D02*
X10206829Y-12316674D01*
X10206829Y-12316674D02*
X10254449Y-12316674D01*
X10254449Y-12316674D02*
X10273496Y-12326198D01*
X10273496Y-12326198D02*
X10283020Y-12335722D01*
X10283020Y-12335722D02*
X10292544Y-12354769D01*
X10292544Y-12354769D02*
X10292544Y-12402388D01*
X10292544Y-12402388D02*
X10283020Y-12421436D01*
X10283020Y-12421436D02*
X10273496Y-12430960D01*
X10273496Y-12430960D02*
X10254449Y-12440484D01*
X10254449Y-12440484D02*
X10206829Y-12440484D01*
X10206829Y-12440484D02*
X10187782Y-12430960D01*
X10187782Y-12430960D02*
X10178258Y-12421436D01*
X10368734Y-12240484D02*
X10368734Y-12278579D01*
X10444925Y-12240484D02*
X10444925Y-12278579D01*
X10740163Y-12516674D02*
X10730639Y-12507150D01*
X10730639Y-12507150D02*
X10711591Y-12478579D01*
X10711591Y-12478579D02*
X10702068Y-12459531D01*
X10702068Y-12459531D02*
X10692544Y-12430960D01*
X10692544Y-12430960D02*
X10683020Y-12383341D01*
X10683020Y-12383341D02*
X10683020Y-12345246D01*
X10683020Y-12345246D02*
X10692544Y-12297627D01*
X10692544Y-12297627D02*
X10702068Y-12269055D01*
X10702068Y-12269055D02*
X10711591Y-12250008D01*
X10711591Y-12250008D02*
X10730639Y-12221436D01*
X10730639Y-12221436D02*
X10740163Y-12211912D01*
X10911591Y-12240484D02*
X10816353Y-12240484D01*
X10816353Y-12240484D02*
X10806830Y-12335722D01*
X10806830Y-12335722D02*
X10816353Y-12326198D01*
X10816353Y-12326198D02*
X10835401Y-12316674D01*
X10835401Y-12316674D02*
X10883020Y-12316674D01*
X10883020Y-12316674D02*
X10902068Y-12326198D01*
X10902068Y-12326198D02*
X10911591Y-12335722D01*
X10911591Y-12335722D02*
X10921115Y-12354769D01*
X10921115Y-12354769D02*
X10921115Y-12402388D01*
X10921115Y-12402388D02*
X10911591Y-12421436D01*
X10911591Y-12421436D02*
X10902068Y-12430960D01*
X10902068Y-12430960D02*
X10883020Y-12440484D01*
X10883020Y-12440484D02*
X10835401Y-12440484D01*
X10835401Y-12440484D02*
X10816353Y-12430960D01*
X10816353Y-12430960D02*
X10806830Y-12421436D01*
X11092544Y-12307150D02*
X11092544Y-12440484D01*
X11044925Y-12230960D02*
X10997306Y-12373817D01*
X10997306Y-12373817D02*
X11121115Y-12373817D01*
X11349687Y-12440484D02*
X11349687Y-12240484D01*
X11435401Y-12440484D02*
X11435401Y-12335722D01*
X11435401Y-12335722D02*
X11425877Y-12316674D01*
X11425877Y-12316674D02*
X11406830Y-12307150D01*
X11406830Y-12307150D02*
X11378258Y-12307150D01*
X11378258Y-12307150D02*
X11359210Y-12316674D01*
X11359210Y-12316674D02*
X11349687Y-12326198D01*
X11559210Y-12440484D02*
X11540163Y-12430960D01*
X11540163Y-12430960D02*
X11530639Y-12421436D01*
X11530639Y-12421436D02*
X11521115Y-12402388D01*
X11521115Y-12402388D02*
X11521115Y-12345246D01*
X11521115Y-12345246D02*
X11530639Y-12326198D01*
X11530639Y-12326198D02*
X11540163Y-12316674D01*
X11540163Y-12316674D02*
X11559210Y-12307150D01*
X11559210Y-12307150D02*
X11587782Y-12307150D01*
X11587782Y-12307150D02*
X11606830Y-12316674D01*
X11606830Y-12316674D02*
X11616353Y-12326198D01*
X11616353Y-12326198D02*
X11625877Y-12345246D01*
X11625877Y-12345246D02*
X11625877Y-12402388D01*
X11625877Y-12402388D02*
X11616353Y-12421436D01*
X11616353Y-12421436D02*
X11606830Y-12430960D01*
X11606830Y-12430960D02*
X11587782Y-12440484D01*
X11587782Y-12440484D02*
X11559210Y-12440484D01*
X11740163Y-12440484D02*
X11721115Y-12430960D01*
X11721115Y-12430960D02*
X11711591Y-12411912D01*
X11711591Y-12411912D02*
X11711591Y-12240484D01*
X11892544Y-12430960D02*
X11873496Y-12440484D01*
X11873496Y-12440484D02*
X11835401Y-12440484D01*
X11835401Y-12440484D02*
X11816353Y-12430960D01*
X11816353Y-12430960D02*
X11806830Y-12411912D01*
X11806830Y-12411912D02*
X11806830Y-12335722D01*
X11806830Y-12335722D02*
X11816353Y-12316674D01*
X11816353Y-12316674D02*
X11835401Y-12307150D01*
X11835401Y-12307150D02*
X11873496Y-12307150D01*
X11873496Y-12307150D02*
X11892544Y-12316674D01*
X11892544Y-12316674D02*
X11902068Y-12335722D01*
X11902068Y-12335722D02*
X11902068Y-12354769D01*
X11902068Y-12354769D02*
X11806830Y-12373817D01*
X11978258Y-12430960D02*
X11997306Y-12440484D01*
X11997306Y-12440484D02*
X12035401Y-12440484D01*
X12035401Y-12440484D02*
X12054449Y-12430960D01*
X12054449Y-12430960D02*
X12063972Y-12411912D01*
X12063972Y-12411912D02*
X12063972Y-12402388D01*
X12063972Y-12402388D02*
X12054449Y-12383341D01*
X12054449Y-12383341D02*
X12035401Y-12373817D01*
X12035401Y-12373817D02*
X12006830Y-12373817D01*
X12006830Y-12373817D02*
X11987782Y-12364293D01*
X11987782Y-12364293D02*
X11978258Y-12345246D01*
X11978258Y-12345246D02*
X11978258Y-12335722D01*
X11978258Y-12335722D02*
X11987782Y-12316674D01*
X11987782Y-12316674D02*
X12006830Y-12307150D01*
X12006830Y-12307150D02*
X12035401Y-12307150D01*
X12035401Y-12307150D02*
X12054449Y-12316674D01*
X12130639Y-12516674D02*
X12140163Y-12507150D01*
X12140163Y-12507150D02*
X12159211Y-12478579D01*
X12159211Y-12478579D02*
X12168734Y-12459531D01*
X12168734Y-12459531D02*
X12178258Y-12430960D01*
X12178258Y-12430960D02*
X12187782Y-12383341D01*
X12187782Y-12383341D02*
X12187782Y-12345246D01*
X12187782Y-12345246D02*
X12178258Y-12297627D01*
X12178258Y-12297627D02*
X12168734Y-12269055D01*
X12168734Y-12269055D02*
X12159211Y-12250008D01*
X12159211Y-12250008D02*
X12140163Y-12221436D01*
X12140163Y-12221436D02*
X12130639Y-12211912D01*
D10*
X7151920Y-12644820D02*
X7151920Y-12581180D01*
X7088280Y-12581180D01*
X7088280Y-12644820D01*
X7151920Y-12644820D01*
D11*
X7463972Y-12504484D02*
X7483020Y-12504484D01*
X7483020Y-12504484D02*
X7502067Y-12514008D01*
X7502067Y-12514008D02*
X7511591Y-12523531D01*
X7511591Y-12523531D02*
X7521115Y-12542579D01*
X7521115Y-12542579D02*
X7530639Y-12580674D01*
X7530639Y-12580674D02*
X7530639Y-12628293D01*
X7530639Y-12628293D02*
X7521115Y-12666388D01*
X7521115Y-12666388D02*
X7511591Y-12685436D01*
X7511591Y-12685436D02*
X7502067Y-12694960D01*
X7502067Y-12694960D02*
X7483020Y-12704484D01*
X7483020Y-12704484D02*
X7463972Y-12704484D01*
X7463972Y-12704484D02*
X7444924Y-12694960D01*
X7444924Y-12694960D02*
X7435401Y-12685436D01*
X7435401Y-12685436D02*
X7425877Y-12666388D01*
X7425877Y-12666388D02*
X7416353Y-12628293D01*
X7416353Y-12628293D02*
X7416353Y-12580674D01*
X7416353Y-12580674D02*
X7425877Y-12542579D01*
X7425877Y-12542579D02*
X7435401Y-12523531D01*
X7435401Y-12523531D02*
X7444924Y-12514008D01*
X7444924Y-12514008D02*
X7463972Y-12504484D01*
X7616353Y-12685436D02*
X7625877Y-12694960D01*
X7625877Y-12694960D02*
X7616353Y-12704484D01*
X7616353Y-12704484D02*
X7606829Y-12694960D01*
X7606829Y-12694960D02*
X7616353Y-12685436D01*
X7616353Y-12685436D02*
X7616353Y-12704484D01*
X7721115Y-12704484D02*
X7759210Y-12704484D01*
X7759210Y-12704484D02*
X7778258Y-12694960D01*
X7778258Y-12694960D02*
X7787782Y-12685436D01*
X7787782Y-12685436D02*
X7806829Y-12656865D01*
X7806829Y-12656865D02*
X7816353Y-12618769D01*
X7816353Y-12618769D02*
X7816353Y-12542579D01*
X7816353Y-12542579D02*
X7806829Y-12523531D01*
X7806829Y-12523531D02*
X7797305Y-12514008D01*
X7797305Y-12514008D02*
X7778258Y-12504484D01*
X7778258Y-12504484D02*
X7740162Y-12504484D01*
X7740162Y-12504484D02*
X7721115Y-12514008D01*
X7721115Y-12514008D02*
X7711591Y-12523531D01*
X7711591Y-12523531D02*
X7702067Y-12542579D01*
X7702067Y-12542579D02*
X7702067Y-12590198D01*
X7702067Y-12590198D02*
X7711591Y-12609246D01*
X7711591Y-12609246D02*
X7721115Y-12618769D01*
X7721115Y-12618769D02*
X7740162Y-12628293D01*
X7740162Y-12628293D02*
X7778258Y-12628293D01*
X7778258Y-12628293D02*
X7797305Y-12618769D01*
X7797305Y-12618769D02*
X7806829Y-12609246D01*
X7806829Y-12609246D02*
X7816353Y-12590198D01*
X7940162Y-12504484D02*
X7959210Y-12504484D01*
X7959210Y-12504484D02*
X7978258Y-12514008D01*
X7978258Y-12514008D02*
X7987782Y-12523531D01*
X7987782Y-12523531D02*
X7997305Y-12542579D01*
X7997305Y-12542579D02*
X8006829Y-12580674D01*
X8006829Y-12580674D02*
X8006829Y-12628293D01*
X8006829Y-12628293D02*
X7997305Y-12666388D01*
X7997305Y-12666388D02*
X7987782Y-12685436D01*
X7987782Y-12685436D02*
X7978258Y-12694960D01*
X7978258Y-12694960D02*
X7959210Y-12704484D01*
X7959210Y-12704484D02*
X7940162Y-12704484D01*
X7940162Y-12704484D02*
X7921115Y-12694960D01*
X7921115Y-12694960D02*
X7911591Y-12685436D01*
X7911591Y-12685436D02*
X7902067Y-12666388D01*
X7902067Y-12666388D02*
X7892543Y-12628293D01*
X7892543Y-12628293D02*
X7892543Y-12580674D01*
X7892543Y-12580674D02*
X7902067Y-12542579D01*
X7902067Y-12542579D02*
X7911591Y-12523531D01*
X7911591Y-12523531D02*
X7921115Y-12514008D01*
X7921115Y-12514008D02*
X7940162Y-12504484D01*
X8130639Y-12504484D02*
X8149686Y-12504484D01*
X8149686Y-12504484D02*
X8168734Y-12514008D01*
X8168734Y-12514008D02*
X8178258Y-12523531D01*
X8178258Y-12523531D02*
X8187782Y-12542579D01*
X8187782Y-12542579D02*
X8197305Y-12580674D01*
X8197305Y-12580674D02*
X8197305Y-12628293D01*
X8197305Y-12628293D02*
X8187782Y-12666388D01*
X8187782Y-12666388D02*
X8178258Y-12685436D01*
X8178258Y-12685436D02*
X8168734Y-12694960D01*
X8168734Y-12694960D02*
X8149686Y-12704484D01*
X8149686Y-12704484D02*
X8130639Y-12704484D01*
X8130639Y-12704484D02*
X8111591Y-12694960D01*
X8111591Y-12694960D02*
X8102067Y-12685436D01*
X8102067Y-12685436D02*
X8092543Y-12666388D01*
X8092543Y-12666388D02*
X8083020Y-12628293D01*
X8083020Y-12628293D02*
X8083020Y-12580674D01*
X8083020Y-12580674D02*
X8092543Y-12542579D01*
X8092543Y-12542579D02*
X8102067Y-12523531D01*
X8102067Y-12523531D02*
X8111591Y-12514008D01*
X8111591Y-12514008D02*
X8130639Y-12504484D01*
X8283020Y-12704484D02*
X8283020Y-12571150D01*
X8283020Y-12590198D02*
X8292543Y-12580674D01*
X8292543Y-12580674D02*
X8311591Y-12571150D01*
X8311591Y-12571150D02*
X8340163Y-12571150D01*
X8340163Y-12571150D02*
X8359210Y-12580674D01*
X8359210Y-12580674D02*
X8368734Y-12599722D01*
X8368734Y-12599722D02*
X8368734Y-12704484D01*
X8368734Y-12599722D02*
X8378258Y-12580674D01*
X8378258Y-12580674D02*
X8397305Y-12571150D01*
X8397305Y-12571150D02*
X8425877Y-12571150D01*
X8425877Y-12571150D02*
X8444925Y-12580674D01*
X8444925Y-12580674D02*
X8454448Y-12599722D01*
X8454448Y-12599722D02*
X8454448Y-12704484D01*
X8549686Y-12704484D02*
X8549686Y-12571150D01*
X8549686Y-12590198D02*
X8559210Y-12580674D01*
X8559210Y-12580674D02*
X8578258Y-12571150D01*
X8578258Y-12571150D02*
X8606829Y-12571150D01*
X8606829Y-12571150D02*
X8625877Y-12580674D01*
X8625877Y-12580674D02*
X8635401Y-12599722D01*
X8635401Y-12599722D02*
X8635401Y-12704484D01*
X8635401Y-12599722D02*
X8644925Y-12580674D01*
X8644925Y-12580674D02*
X8663972Y-12571150D01*
X8663972Y-12571150D02*
X8692544Y-12571150D01*
X8692544Y-12571150D02*
X8711591Y-12580674D01*
X8711591Y-12580674D02*
X8721115Y-12599722D01*
X8721115Y-12599722D02*
X8721115Y-12704484D01*
X9111591Y-12494960D02*
X8940163Y-12752103D01*
X9368734Y-12504484D02*
X9387782Y-12504484D01*
X9387782Y-12504484D02*
X9406829Y-12514008D01*
X9406829Y-12514008D02*
X9416353Y-12523531D01*
X9416353Y-12523531D02*
X9425877Y-12542579D01*
X9425877Y-12542579D02*
X9435401Y-12580674D01*
X9435401Y-12580674D02*
X9435401Y-12628293D01*
X9435401Y-12628293D02*
X9425877Y-12666388D01*
X9425877Y-12666388D02*
X9416353Y-12685436D01*
X9416353Y-12685436D02*
X9406829Y-12694960D01*
X9406829Y-12694960D02*
X9387782Y-12704484D01*
X9387782Y-12704484D02*
X9368734Y-12704484D01*
X9368734Y-12704484D02*
X9349687Y-12694960D01*
X9349687Y-12694960D02*
X9340163Y-12685436D01*
X9340163Y-12685436D02*
X9330639Y-12666388D01*
X9330639Y-12666388D02*
X9321115Y-12628293D01*
X9321115Y-12628293D02*
X9321115Y-12580674D01*
X9321115Y-12580674D02*
X9330639Y-12542579D01*
X9330639Y-12542579D02*
X9340163Y-12523531D01*
X9340163Y-12523531D02*
X9349687Y-12514008D01*
X9349687Y-12514008D02*
X9368734Y-12504484D01*
X9521115Y-12685436D02*
X9530639Y-12694960D01*
X9530639Y-12694960D02*
X9521115Y-12704484D01*
X9521115Y-12704484D02*
X9511591Y-12694960D01*
X9511591Y-12694960D02*
X9521115Y-12685436D01*
X9521115Y-12685436D02*
X9521115Y-12704484D01*
X9654448Y-12504484D02*
X9673496Y-12504484D01*
X9673496Y-12504484D02*
X9692544Y-12514008D01*
X9692544Y-12514008D02*
X9702068Y-12523531D01*
X9702068Y-12523531D02*
X9711591Y-12542579D01*
X9711591Y-12542579D02*
X9721115Y-12580674D01*
X9721115Y-12580674D02*
X9721115Y-12628293D01*
X9721115Y-12628293D02*
X9711591Y-12666388D01*
X9711591Y-12666388D02*
X9702068Y-12685436D01*
X9702068Y-12685436D02*
X9692544Y-12694960D01*
X9692544Y-12694960D02*
X9673496Y-12704484D01*
X9673496Y-12704484D02*
X9654448Y-12704484D01*
X9654448Y-12704484D02*
X9635401Y-12694960D01*
X9635401Y-12694960D02*
X9625877Y-12685436D01*
X9625877Y-12685436D02*
X9616353Y-12666388D01*
X9616353Y-12666388D02*
X9606829Y-12628293D01*
X9606829Y-12628293D02*
X9606829Y-12580674D01*
X9606829Y-12580674D02*
X9616353Y-12542579D01*
X9616353Y-12542579D02*
X9625877Y-12523531D01*
X9625877Y-12523531D02*
X9635401Y-12514008D01*
X9635401Y-12514008D02*
X9654448Y-12504484D01*
X9787782Y-12504484D02*
X9911591Y-12504484D01*
X9911591Y-12504484D02*
X9844925Y-12580674D01*
X9844925Y-12580674D02*
X9873496Y-12580674D01*
X9873496Y-12580674D02*
X9892544Y-12590198D01*
X9892544Y-12590198D02*
X9902068Y-12599722D01*
X9902068Y-12599722D02*
X9911591Y-12618769D01*
X9911591Y-12618769D02*
X9911591Y-12666388D01*
X9911591Y-12666388D02*
X9902068Y-12685436D01*
X9902068Y-12685436D02*
X9892544Y-12694960D01*
X9892544Y-12694960D02*
X9873496Y-12704484D01*
X9873496Y-12704484D02*
X9816353Y-12704484D01*
X9816353Y-12704484D02*
X9797306Y-12694960D01*
X9797306Y-12694960D02*
X9787782Y-12685436D01*
X10092544Y-12504484D02*
X9997306Y-12504484D01*
X9997306Y-12504484D02*
X9987782Y-12599722D01*
X9987782Y-12599722D02*
X9997306Y-12590198D01*
X9997306Y-12590198D02*
X10016353Y-12580674D01*
X10016353Y-12580674D02*
X10063972Y-12580674D01*
X10063972Y-12580674D02*
X10083020Y-12590198D01*
X10083020Y-12590198D02*
X10092544Y-12599722D01*
X10092544Y-12599722D02*
X10102068Y-12618769D01*
X10102068Y-12618769D02*
X10102068Y-12666388D01*
X10102068Y-12666388D02*
X10092544Y-12685436D01*
X10092544Y-12685436D02*
X10083020Y-12694960D01*
X10083020Y-12694960D02*
X10063972Y-12704484D01*
X10063972Y-12704484D02*
X10016353Y-12704484D01*
X10016353Y-12704484D02*
X9997306Y-12694960D01*
X9997306Y-12694960D02*
X9987782Y-12685436D01*
X10273496Y-12571150D02*
X10273496Y-12704484D01*
X10225877Y-12494960D02*
X10178258Y-12637817D01*
X10178258Y-12637817D02*
X10302068Y-12637817D01*
X10368734Y-12504484D02*
X10368734Y-12542579D01*
X10444925Y-12504484D02*
X10444925Y-12542579D01*
X10740163Y-12780674D02*
X10730639Y-12771150D01*
X10730639Y-12771150D02*
X10711591Y-12742579D01*
X10711591Y-12742579D02*
X10702068Y-12723531D01*
X10702068Y-12723531D02*
X10692544Y-12694960D01*
X10692544Y-12694960D02*
X10683020Y-12647341D01*
X10683020Y-12647341D02*
X10683020Y-12609246D01*
X10683020Y-12609246D02*
X10692544Y-12561627D01*
X10692544Y-12561627D02*
X10702068Y-12533055D01*
X10702068Y-12533055D02*
X10711591Y-12514008D01*
X10711591Y-12514008D02*
X10730639Y-12485436D01*
X10730639Y-12485436D02*
X10740163Y-12475912D01*
X10902068Y-12504484D02*
X10863972Y-12504484D01*
X10863972Y-12504484D02*
X10844925Y-12514008D01*
X10844925Y-12514008D02*
X10835401Y-12523531D01*
X10835401Y-12523531D02*
X10816353Y-12552103D01*
X10816353Y-12552103D02*
X10806830Y-12590198D01*
X10806830Y-12590198D02*
X10806830Y-12666388D01*
X10806830Y-12666388D02*
X10816353Y-12685436D01*
X10816353Y-12685436D02*
X10825877Y-12694960D01*
X10825877Y-12694960D02*
X10844925Y-12704484D01*
X10844925Y-12704484D02*
X10883020Y-12704484D01*
X10883020Y-12704484D02*
X10902068Y-12694960D01*
X10902068Y-12694960D02*
X10911591Y-12685436D01*
X10911591Y-12685436D02*
X10921115Y-12666388D01*
X10921115Y-12666388D02*
X10921115Y-12618769D01*
X10921115Y-12618769D02*
X10911591Y-12599722D01*
X10911591Y-12599722D02*
X10902068Y-12590198D01*
X10902068Y-12590198D02*
X10883020Y-12580674D01*
X10883020Y-12580674D02*
X10844925Y-12580674D01*
X10844925Y-12580674D02*
X10825877Y-12590198D01*
X10825877Y-12590198D02*
X10816353Y-12599722D01*
X10816353Y-12599722D02*
X10806830Y-12618769D01*
X11159211Y-12704484D02*
X11159211Y-12504484D01*
X11244925Y-12704484D02*
X11244925Y-12599722D01*
X11244925Y-12599722D02*
X11235401Y-12580674D01*
X11235401Y-12580674D02*
X11216353Y-12571150D01*
X11216353Y-12571150D02*
X11187782Y-12571150D01*
X11187782Y-12571150D02*
X11168734Y-12580674D01*
X11168734Y-12580674D02*
X11159211Y-12590198D01*
X11368734Y-12704484D02*
X11349687Y-12694960D01*
X11349687Y-12694960D02*
X11340163Y-12685436D01*
X11340163Y-12685436D02*
X11330639Y-12666388D01*
X11330639Y-12666388D02*
X11330639Y-12609246D01*
X11330639Y-12609246D02*
X11340163Y-12590198D01*
X11340163Y-12590198D02*
X11349687Y-12580674D01*
X11349687Y-12580674D02*
X11368734Y-12571150D01*
X11368734Y-12571150D02*
X11397306Y-12571150D01*
X11397306Y-12571150D02*
X11416353Y-12580674D01*
X11416353Y-12580674D02*
X11425877Y-12590198D01*
X11425877Y-12590198D02*
X11435401Y-12609246D01*
X11435401Y-12609246D02*
X11435401Y-12666388D01*
X11435401Y-12666388D02*
X11425877Y-12685436D01*
X11425877Y-12685436D02*
X11416353Y-12694960D01*
X11416353Y-12694960D02*
X11397306Y-12704484D01*
X11397306Y-12704484D02*
X11368734Y-12704484D01*
X11549687Y-12704484D02*
X11530639Y-12694960D01*
X11530639Y-12694960D02*
X11521115Y-12675912D01*
X11521115Y-12675912D02*
X11521115Y-12504484D01*
X11702068Y-12694960D02*
X11683020Y-12704484D01*
X11683020Y-12704484D02*
X11644925Y-12704484D01*
X11644925Y-12704484D02*
X11625877Y-12694960D01*
X11625877Y-12694960D02*
X11616353Y-12675912D01*
X11616353Y-12675912D02*
X11616353Y-12599722D01*
X11616353Y-12599722D02*
X11625877Y-12580674D01*
X11625877Y-12580674D02*
X11644925Y-12571150D01*
X11644925Y-12571150D02*
X11683020Y-12571150D01*
X11683020Y-12571150D02*
X11702068Y-12580674D01*
X11702068Y-12580674D02*
X11711591Y-12599722D01*
X11711591Y-12599722D02*
X11711591Y-12618769D01*
X11711591Y-12618769D02*
X11616353Y-12637817D01*
X11787782Y-12694960D02*
X11806830Y-12704484D01*
X11806830Y-12704484D02*
X11844925Y-12704484D01*
X11844925Y-12704484D02*
X11863972Y-12694960D01*
X11863972Y-12694960D02*
X11873496Y-12675912D01*
X11873496Y-12675912D02*
X11873496Y-12666388D01*
X11873496Y-12666388D02*
X11863972Y-12647341D01*
X11863972Y-12647341D02*
X11844925Y-12637817D01*
X11844925Y-12637817D02*
X11816353Y-12637817D01*
X11816353Y-12637817D02*
X11797306Y-12628293D01*
X11797306Y-12628293D02*
X11787782Y-12609246D01*
X11787782Y-12609246D02*
X11787782Y-12599722D01*
X11787782Y-12599722D02*
X11797306Y-12580674D01*
X11797306Y-12580674D02*
X11816353Y-12571150D01*
X11816353Y-12571150D02*
X11844925Y-12571150D01*
X11844925Y-12571150D02*
X11863972Y-12580674D01*
X11940163Y-12780674D02*
X11949687Y-12771150D01*
X11949687Y-12771150D02*
X11968734Y-12742579D01*
X11968734Y-12742579D02*
X11978258Y-12723531D01*
X11978258Y-12723531D02*
X11987782Y-12694960D01*
X11987782Y-12694960D02*
X11997306Y-12647341D01*
X11997306Y-12647341D02*
X11997306Y-12609246D01*
X11997306Y-12609246D02*
X11987782Y-12561627D01*
X11987782Y-12561627D02*
X11978258Y-12533055D01*
X11978258Y-12533055D02*
X11968734Y-12514008D01*
X11968734Y-12514008D02*
X11949687Y-12485436D01*
X11949687Y-12485436D02*
X11940163Y-12475912D01*
D10*
X7115100Y-12927000D02*
X7165100Y-12877000D01*
X7115100Y-12827000D01*
X7065100Y-12877000D01*
X7115100Y-12927000D01*
D11*
X7530639Y-12968484D02*
X7416353Y-12968484D01*
X7473496Y-12968484D02*
X7473496Y-12768484D01*
X7473496Y-12768484D02*
X7454448Y-12797055D01*
X7454448Y-12797055D02*
X7435401Y-12816103D01*
X7435401Y-12816103D02*
X7416353Y-12825627D01*
X7616353Y-12949436D02*
X7625877Y-12958960D01*
X7625877Y-12958960D02*
X7616353Y-12968484D01*
X7616353Y-12968484D02*
X7606829Y-12958960D01*
X7606829Y-12958960D02*
X7616353Y-12949436D01*
X7616353Y-12949436D02*
X7616353Y-12968484D01*
X7749686Y-12768484D02*
X7768734Y-12768484D01*
X7768734Y-12768484D02*
X7787782Y-12778008D01*
X7787782Y-12778008D02*
X7797305Y-12787531D01*
X7797305Y-12787531D02*
X7806829Y-12806579D01*
X7806829Y-12806579D02*
X7816353Y-12844674D01*
X7816353Y-12844674D02*
X7816353Y-12892293D01*
X7816353Y-12892293D02*
X7806829Y-12930388D01*
X7806829Y-12930388D02*
X7797305Y-12949436D01*
X7797305Y-12949436D02*
X7787782Y-12958960D01*
X7787782Y-12958960D02*
X7768734Y-12968484D01*
X7768734Y-12968484D02*
X7749686Y-12968484D01*
X7749686Y-12968484D02*
X7730639Y-12958960D01*
X7730639Y-12958960D02*
X7721115Y-12949436D01*
X7721115Y-12949436D02*
X7711591Y-12930388D01*
X7711591Y-12930388D02*
X7702067Y-12892293D01*
X7702067Y-12892293D02*
X7702067Y-12844674D01*
X7702067Y-12844674D02*
X7711591Y-12806579D01*
X7711591Y-12806579D02*
X7721115Y-12787531D01*
X7721115Y-12787531D02*
X7730639Y-12778008D01*
X7730639Y-12778008D02*
X7749686Y-12768484D01*
X7940162Y-12768484D02*
X7959210Y-12768484D01*
X7959210Y-12768484D02*
X7978258Y-12778008D01*
X7978258Y-12778008D02*
X7987782Y-12787531D01*
X7987782Y-12787531D02*
X7997305Y-12806579D01*
X7997305Y-12806579D02*
X8006829Y-12844674D01*
X8006829Y-12844674D02*
X8006829Y-12892293D01*
X8006829Y-12892293D02*
X7997305Y-12930388D01*
X7997305Y-12930388D02*
X7987782Y-12949436D01*
X7987782Y-12949436D02*
X7978258Y-12958960D01*
X7978258Y-12958960D02*
X7959210Y-12968484D01*
X7959210Y-12968484D02*
X7940162Y-12968484D01*
X7940162Y-12968484D02*
X7921115Y-12958960D01*
X7921115Y-12958960D02*
X7911591Y-12949436D01*
X7911591Y-12949436D02*
X7902067Y-12930388D01*
X7902067Y-12930388D02*
X7892543Y-12892293D01*
X7892543Y-12892293D02*
X7892543Y-12844674D01*
X7892543Y-12844674D02*
X7902067Y-12806579D01*
X7902067Y-12806579D02*
X7911591Y-12787531D01*
X7911591Y-12787531D02*
X7921115Y-12778008D01*
X7921115Y-12778008D02*
X7940162Y-12768484D01*
X8130639Y-12768484D02*
X8149686Y-12768484D01*
X8149686Y-12768484D02*
X8168734Y-12778008D01*
X8168734Y-12778008D02*
X8178258Y-12787531D01*
X8178258Y-12787531D02*
X8187782Y-12806579D01*
X8187782Y-12806579D02*
X8197305Y-12844674D01*
X8197305Y-12844674D02*
X8197305Y-12892293D01*
X8197305Y-12892293D02*
X8187782Y-12930388D01*
X8187782Y-12930388D02*
X8178258Y-12949436D01*
X8178258Y-12949436D02*
X8168734Y-12958960D01*
X8168734Y-12958960D02*
X8149686Y-12968484D01*
X8149686Y-12968484D02*
X8130639Y-12968484D01*
X8130639Y-12968484D02*
X8111591Y-12958960D01*
X8111591Y-12958960D02*
X8102067Y-12949436D01*
X8102067Y-12949436D02*
X8092543Y-12930388D01*
X8092543Y-12930388D02*
X8083020Y-12892293D01*
X8083020Y-12892293D02*
X8083020Y-12844674D01*
X8083020Y-12844674D02*
X8092543Y-12806579D01*
X8092543Y-12806579D02*
X8102067Y-12787531D01*
X8102067Y-12787531D02*
X8111591Y-12778008D01*
X8111591Y-12778008D02*
X8130639Y-12768484D01*
X8283020Y-12968484D02*
X8283020Y-12835150D01*
X8283020Y-12854198D02*
X8292543Y-12844674D01*
X8292543Y-12844674D02*
X8311591Y-12835150D01*
X8311591Y-12835150D02*
X8340163Y-12835150D01*
X8340163Y-12835150D02*
X8359210Y-12844674D01*
X8359210Y-12844674D02*
X8368734Y-12863722D01*
X8368734Y-12863722D02*
X8368734Y-12968484D01*
X8368734Y-12863722D02*
X8378258Y-12844674D01*
X8378258Y-12844674D02*
X8397305Y-12835150D01*
X8397305Y-12835150D02*
X8425877Y-12835150D01*
X8425877Y-12835150D02*
X8444925Y-12844674D01*
X8444925Y-12844674D02*
X8454448Y-12863722D01*
X8454448Y-12863722D02*
X8454448Y-12968484D01*
X8549686Y-12968484D02*
X8549686Y-12835150D01*
X8549686Y-12854198D02*
X8559210Y-12844674D01*
X8559210Y-12844674D02*
X8578258Y-12835150D01*
X8578258Y-12835150D02*
X8606829Y-12835150D01*
X8606829Y-12835150D02*
X8625877Y-12844674D01*
X8625877Y-12844674D02*
X8635401Y-12863722D01*
X8635401Y-12863722D02*
X8635401Y-12968484D01*
X8635401Y-12863722D02*
X8644925Y-12844674D01*
X8644925Y-12844674D02*
X8663972Y-12835150D01*
X8663972Y-12835150D02*
X8692544Y-12835150D01*
X8692544Y-12835150D02*
X8711591Y-12844674D01*
X8711591Y-12844674D02*
X8721115Y-12863722D01*
X8721115Y-12863722D02*
X8721115Y-12968484D01*
X9111591Y-12758960D02*
X8940163Y-13016103D01*
X9368734Y-12768484D02*
X9387782Y-12768484D01*
X9387782Y-12768484D02*
X9406829Y-12778008D01*
X9406829Y-12778008D02*
X9416353Y-12787531D01*
X9416353Y-12787531D02*
X9425877Y-12806579D01*
X9425877Y-12806579D02*
X9435401Y-12844674D01*
X9435401Y-12844674D02*
X9435401Y-12892293D01*
X9435401Y-12892293D02*
X9425877Y-12930388D01*
X9425877Y-12930388D02*
X9416353Y-12949436D01*
X9416353Y-12949436D02*
X9406829Y-12958960D01*
X9406829Y-12958960D02*
X9387782Y-12968484D01*
X9387782Y-12968484D02*
X9368734Y-12968484D01*
X9368734Y-12968484D02*
X9349687Y-12958960D01*
X9349687Y-12958960D02*
X9340163Y-12949436D01*
X9340163Y-12949436D02*
X9330639Y-12930388D01*
X9330639Y-12930388D02*
X9321115Y-12892293D01*
X9321115Y-12892293D02*
X9321115Y-12844674D01*
X9321115Y-12844674D02*
X9330639Y-12806579D01*
X9330639Y-12806579D02*
X9340163Y-12787531D01*
X9340163Y-12787531D02*
X9349687Y-12778008D01*
X9349687Y-12778008D02*
X9368734Y-12768484D01*
X9521115Y-12949436D02*
X9530639Y-12958960D01*
X9530639Y-12958960D02*
X9521115Y-12968484D01*
X9521115Y-12968484D02*
X9511591Y-12958960D01*
X9511591Y-12958960D02*
X9521115Y-12949436D01*
X9521115Y-12949436D02*
X9521115Y-12968484D01*
X9654448Y-12768484D02*
X9673496Y-12768484D01*
X9673496Y-12768484D02*
X9692544Y-12778008D01*
X9692544Y-12778008D02*
X9702068Y-12787531D01*
X9702068Y-12787531D02*
X9711591Y-12806579D01*
X9711591Y-12806579D02*
X9721115Y-12844674D01*
X9721115Y-12844674D02*
X9721115Y-12892293D01*
X9721115Y-12892293D02*
X9711591Y-12930388D01*
X9711591Y-12930388D02*
X9702068Y-12949436D01*
X9702068Y-12949436D02*
X9692544Y-12958960D01*
X9692544Y-12958960D02*
X9673496Y-12968484D01*
X9673496Y-12968484D02*
X9654448Y-12968484D01*
X9654448Y-12968484D02*
X9635401Y-12958960D01*
X9635401Y-12958960D02*
X9625877Y-12949436D01*
X9625877Y-12949436D02*
X9616353Y-12930388D01*
X9616353Y-12930388D02*
X9606829Y-12892293D01*
X9606829Y-12892293D02*
X9606829Y-12844674D01*
X9606829Y-12844674D02*
X9616353Y-12806579D01*
X9616353Y-12806579D02*
X9625877Y-12787531D01*
X9625877Y-12787531D02*
X9635401Y-12778008D01*
X9635401Y-12778008D02*
X9654448Y-12768484D01*
X9787782Y-12768484D02*
X9911591Y-12768484D01*
X9911591Y-12768484D02*
X9844925Y-12844674D01*
X9844925Y-12844674D02*
X9873496Y-12844674D01*
X9873496Y-12844674D02*
X9892544Y-12854198D01*
X9892544Y-12854198D02*
X9902068Y-12863722D01*
X9902068Y-12863722D02*
X9911591Y-12882769D01*
X9911591Y-12882769D02*
X9911591Y-12930388D01*
X9911591Y-12930388D02*
X9902068Y-12949436D01*
X9902068Y-12949436D02*
X9892544Y-12958960D01*
X9892544Y-12958960D02*
X9873496Y-12968484D01*
X9873496Y-12968484D02*
X9816353Y-12968484D01*
X9816353Y-12968484D02*
X9797306Y-12958960D01*
X9797306Y-12958960D02*
X9787782Y-12949436D01*
X10006829Y-12968484D02*
X10044925Y-12968484D01*
X10044925Y-12968484D02*
X10063972Y-12958960D01*
X10063972Y-12958960D02*
X10073496Y-12949436D01*
X10073496Y-12949436D02*
X10092544Y-12920865D01*
X10092544Y-12920865D02*
X10102068Y-12882769D01*
X10102068Y-12882769D02*
X10102068Y-12806579D01*
X10102068Y-12806579D02*
X10092544Y-12787531D01*
X10092544Y-12787531D02*
X10083020Y-12778008D01*
X10083020Y-12778008D02*
X10063972Y-12768484D01*
X10063972Y-12768484D02*
X10025877Y-12768484D01*
X10025877Y-12768484D02*
X10006829Y-12778008D01*
X10006829Y-12778008D02*
X9997306Y-12787531D01*
X9997306Y-12787531D02*
X9987782Y-12806579D01*
X9987782Y-12806579D02*
X9987782Y-12854198D01*
X9987782Y-12854198D02*
X9997306Y-12873246D01*
X9997306Y-12873246D02*
X10006829Y-12882769D01*
X10006829Y-12882769D02*
X10025877Y-12892293D01*
X10025877Y-12892293D02*
X10063972Y-12892293D01*
X10063972Y-12892293D02*
X10083020Y-12882769D01*
X10083020Y-12882769D02*
X10092544Y-12873246D01*
X10092544Y-12873246D02*
X10102068Y-12854198D01*
X10273496Y-12835150D02*
X10273496Y-12968484D01*
X10225877Y-12758960D02*
X10178258Y-12901817D01*
X10178258Y-12901817D02*
X10302068Y-12901817D01*
X10368734Y-12768484D02*
X10368734Y-12806579D01*
X10444925Y-12768484D02*
X10444925Y-12806579D01*
X10740163Y-13044674D02*
X10730639Y-13035150D01*
X10730639Y-13035150D02*
X10711591Y-13006579D01*
X10711591Y-13006579D02*
X10702068Y-12987531D01*
X10702068Y-12987531D02*
X10692544Y-12958960D01*
X10692544Y-12958960D02*
X10683020Y-12911341D01*
X10683020Y-12911341D02*
X10683020Y-12873246D01*
X10683020Y-12873246D02*
X10692544Y-12825627D01*
X10692544Y-12825627D02*
X10702068Y-12797055D01*
X10702068Y-12797055D02*
X10711591Y-12778008D01*
X10711591Y-12778008D02*
X10730639Y-12749436D01*
X10730639Y-12749436D02*
X10740163Y-12739912D01*
X10797306Y-12768484D02*
X10921115Y-12768484D01*
X10921115Y-12768484D02*
X10854449Y-12844674D01*
X10854449Y-12844674D02*
X10883020Y-12844674D01*
X10883020Y-12844674D02*
X10902068Y-12854198D01*
X10902068Y-12854198D02*
X10911591Y-12863722D01*
X10911591Y-12863722D02*
X10921115Y-12882769D01*
X10921115Y-12882769D02*
X10921115Y-12930388D01*
X10921115Y-12930388D02*
X10911591Y-12949436D01*
X10911591Y-12949436D02*
X10902068Y-12958960D01*
X10902068Y-12958960D02*
X10883020Y-12968484D01*
X10883020Y-12968484D02*
X10825877Y-12968484D01*
X10825877Y-12968484D02*
X10806830Y-12958960D01*
X10806830Y-12958960D02*
X10797306Y-12949436D01*
X10997306Y-12787531D02*
X11006830Y-12778008D01*
X11006830Y-12778008D02*
X11025877Y-12768484D01*
X11025877Y-12768484D02*
X11073496Y-12768484D01*
X11073496Y-12768484D02*
X11092544Y-12778008D01*
X11092544Y-12778008D02*
X11102068Y-12787531D01*
X11102068Y-12787531D02*
X11111591Y-12806579D01*
X11111591Y-12806579D02*
X11111591Y-12825627D01*
X11111591Y-12825627D02*
X11102068Y-12854198D01*
X11102068Y-12854198D02*
X10987782Y-12968484D01*
X10987782Y-12968484D02*
X11111591Y-12968484D01*
X11349687Y-12968484D02*
X11349687Y-12768484D01*
X11435401Y-12968484D02*
X11435401Y-12863722D01*
X11435401Y-12863722D02*
X11425877Y-12844674D01*
X11425877Y-12844674D02*
X11406830Y-12835150D01*
X11406830Y-12835150D02*
X11378258Y-12835150D01*
X11378258Y-12835150D02*
X11359210Y-12844674D01*
X11359210Y-12844674D02*
X11349687Y-12854198D01*
X11559210Y-12968484D02*
X11540163Y-12958960D01*
X11540163Y-12958960D02*
X11530639Y-12949436D01*
X11530639Y-12949436D02*
X11521115Y-12930388D01*
X11521115Y-12930388D02*
X11521115Y-12873246D01*
X11521115Y-12873246D02*
X11530639Y-12854198D01*
X11530639Y-12854198D02*
X11540163Y-12844674D01*
X11540163Y-12844674D02*
X11559210Y-12835150D01*
X11559210Y-12835150D02*
X11587782Y-12835150D01*
X11587782Y-12835150D02*
X11606830Y-12844674D01*
X11606830Y-12844674D02*
X11616353Y-12854198D01*
X11616353Y-12854198D02*
X11625877Y-12873246D01*
X11625877Y-12873246D02*
X11625877Y-12930388D01*
X11625877Y-12930388D02*
X11616353Y-12949436D01*
X11616353Y-12949436D02*
X11606830Y-12958960D01*
X11606830Y-12958960D02*
X11587782Y-12968484D01*
X11587782Y-12968484D02*
X11559210Y-12968484D01*
X11740163Y-12968484D02*
X11721115Y-12958960D01*
X11721115Y-12958960D02*
X11711591Y-12939912D01*
X11711591Y-12939912D02*
X11711591Y-12768484D01*
X11892544Y-12958960D02*
X11873496Y-12968484D01*
X11873496Y-12968484D02*
X11835401Y-12968484D01*
X11835401Y-12968484D02*
X11816353Y-12958960D01*
X11816353Y-12958960D02*
X11806830Y-12939912D01*
X11806830Y-12939912D02*
X11806830Y-12863722D01*
X11806830Y-12863722D02*
X11816353Y-12844674D01*
X11816353Y-12844674D02*
X11835401Y-12835150D01*
X11835401Y-12835150D02*
X11873496Y-12835150D01*
X11873496Y-12835150D02*
X11892544Y-12844674D01*
X11892544Y-12844674D02*
X11902068Y-12863722D01*
X11902068Y-12863722D02*
X11902068Y-12882769D01*
X11902068Y-12882769D02*
X11806830Y-12901817D01*
X11978258Y-12958960D02*
X11997306Y-12968484D01*
X11997306Y-12968484D02*
X12035401Y-12968484D01*
X12035401Y-12968484D02*
X12054449Y-12958960D01*
X12054449Y-12958960D02*
X12063972Y-12939912D01*
X12063972Y-12939912D02*
X12063972Y-12930388D01*
X12063972Y-12930388D02*
X12054449Y-12911341D01*
X12054449Y-12911341D02*
X12035401Y-12901817D01*
X12035401Y-12901817D02*
X12006830Y-12901817D01*
X12006830Y-12901817D02*
X11987782Y-12892293D01*
X11987782Y-12892293D02*
X11978258Y-12873246D01*
X11978258Y-12873246D02*
X11978258Y-12863722D01*
X11978258Y-12863722D02*
X11987782Y-12844674D01*
X11987782Y-12844674D02*
X12006830Y-12835150D01*
X12006830Y-12835150D02*
X12035401Y-12835150D01*
X12035401Y-12835150D02*
X12054449Y-12844674D01*
X12130639Y-13044674D02*
X12140163Y-13035150D01*
X12140163Y-13035150D02*
X12159211Y-13006579D01*
X12159211Y-13006579D02*
X12168734Y-12987531D01*
X12168734Y-12987531D02*
X12178258Y-12958960D01*
X12178258Y-12958960D02*
X12187782Y-12911341D01*
X12187782Y-12911341D02*
X12187782Y-12873246D01*
X12187782Y-12873246D02*
X12178258Y-12825627D01*
X12178258Y-12825627D02*
X12168734Y-12797055D01*
X12168734Y-12797055D02*
X12159211Y-12778008D01*
X12159211Y-12778008D02*
X12140163Y-12749436D01*
X12140163Y-12749436D02*
X12130639Y-12739912D01*
D12*
X7055100Y-13086000D02*
X7165100Y-13196000D01*
X7165100Y-13086000D02*
X7055100Y-13196000D01*
X7165100Y-13141000D02*
G75*
G02*
X7055100Y-13141000I-55000J0D01*
G01*
X7055100Y-13141000D02*
G75*
G02*
X7165100Y-13141000I55000J0D01*
G01*
D11*
X7530639Y-13232484D02*
X7416353Y-13232484D01*
X7473496Y-13232484D02*
X7473496Y-13032484D01*
X7473496Y-13032484D02*
X7454448Y-13061055D01*
X7454448Y-13061055D02*
X7435401Y-13080103D01*
X7435401Y-13080103D02*
X7416353Y-13089627D01*
X7616353Y-13213436D02*
X7625877Y-13222960D01*
X7625877Y-13222960D02*
X7616353Y-13232484D01*
X7616353Y-13232484D02*
X7606829Y-13222960D01*
X7606829Y-13222960D02*
X7616353Y-13213436D01*
X7616353Y-13213436D02*
X7616353Y-13232484D01*
X7816353Y-13232484D02*
X7702067Y-13232484D01*
X7759210Y-13232484D02*
X7759210Y-13032484D01*
X7759210Y-13032484D02*
X7740162Y-13061055D01*
X7740162Y-13061055D02*
X7721115Y-13080103D01*
X7721115Y-13080103D02*
X7702067Y-13089627D01*
X7940162Y-13032484D02*
X7959210Y-13032484D01*
X7959210Y-13032484D02*
X7978258Y-13042008D01*
X7978258Y-13042008D02*
X7987782Y-13051531D01*
X7987782Y-13051531D02*
X7997305Y-13070579D01*
X7997305Y-13070579D02*
X8006829Y-13108674D01*
X8006829Y-13108674D02*
X8006829Y-13156293D01*
X8006829Y-13156293D02*
X7997305Y-13194388D01*
X7997305Y-13194388D02*
X7987782Y-13213436D01*
X7987782Y-13213436D02*
X7978258Y-13222960D01*
X7978258Y-13222960D02*
X7959210Y-13232484D01*
X7959210Y-13232484D02*
X7940162Y-13232484D01*
X7940162Y-13232484D02*
X7921115Y-13222960D01*
X7921115Y-13222960D02*
X7911591Y-13213436D01*
X7911591Y-13213436D02*
X7902067Y-13194388D01*
X7902067Y-13194388D02*
X7892543Y-13156293D01*
X7892543Y-13156293D02*
X7892543Y-13108674D01*
X7892543Y-13108674D02*
X7902067Y-13070579D01*
X7902067Y-13070579D02*
X7911591Y-13051531D01*
X7911591Y-13051531D02*
X7921115Y-13042008D01*
X7921115Y-13042008D02*
X7940162Y-13032484D01*
X8130639Y-13032484D02*
X8149686Y-13032484D01*
X8149686Y-13032484D02*
X8168734Y-13042008D01*
X8168734Y-13042008D02*
X8178258Y-13051531D01*
X8178258Y-13051531D02*
X8187782Y-13070579D01*
X8187782Y-13070579D02*
X8197305Y-13108674D01*
X8197305Y-13108674D02*
X8197305Y-13156293D01*
X8197305Y-13156293D02*
X8187782Y-13194388D01*
X8187782Y-13194388D02*
X8178258Y-13213436D01*
X8178258Y-13213436D02*
X8168734Y-13222960D01*
X8168734Y-13222960D02*
X8149686Y-13232484D01*
X8149686Y-13232484D02*
X8130639Y-13232484D01*
X8130639Y-13232484D02*
X8111591Y-13222960D01*
X8111591Y-13222960D02*
X8102067Y-13213436D01*
X8102067Y-13213436D02*
X8092543Y-13194388D01*
X8092543Y-13194388D02*
X8083020Y-13156293D01*
X8083020Y-13156293D02*
X8083020Y-13108674D01*
X8083020Y-13108674D02*
X8092543Y-13070579D01*
X8092543Y-13070579D02*
X8102067Y-13051531D01*
X8102067Y-13051531D02*
X8111591Y-13042008D01*
X8111591Y-13042008D02*
X8130639Y-13032484D01*
X8283020Y-13232484D02*
X8283020Y-13099150D01*
X8283020Y-13118198D02*
X8292543Y-13108674D01*
X8292543Y-13108674D02*
X8311591Y-13099150D01*
X8311591Y-13099150D02*
X8340163Y-13099150D01*
X8340163Y-13099150D02*
X8359210Y-13108674D01*
X8359210Y-13108674D02*
X8368734Y-13127722D01*
X8368734Y-13127722D02*
X8368734Y-13232484D01*
X8368734Y-13127722D02*
X8378258Y-13108674D01*
X8378258Y-13108674D02*
X8397305Y-13099150D01*
X8397305Y-13099150D02*
X8425877Y-13099150D01*
X8425877Y-13099150D02*
X8444925Y-13108674D01*
X8444925Y-13108674D02*
X8454448Y-13127722D01*
X8454448Y-13127722D02*
X8454448Y-13232484D01*
X8549686Y-13232484D02*
X8549686Y-13099150D01*
X8549686Y-13118198D02*
X8559210Y-13108674D01*
X8559210Y-13108674D02*
X8578258Y-13099150D01*
X8578258Y-13099150D02*
X8606829Y-13099150D01*
X8606829Y-13099150D02*
X8625877Y-13108674D01*
X8625877Y-13108674D02*
X8635401Y-13127722D01*
X8635401Y-13127722D02*
X8635401Y-13232484D01*
X8635401Y-13127722D02*
X8644925Y-13108674D01*
X8644925Y-13108674D02*
X8663972Y-13099150D01*
X8663972Y-13099150D02*
X8692544Y-13099150D01*
X8692544Y-13099150D02*
X8711591Y-13108674D01*
X8711591Y-13108674D02*
X8721115Y-13127722D01*
X8721115Y-13127722D02*
X8721115Y-13232484D01*
X9111591Y-13022960D02*
X8940163Y-13280103D01*
X9368734Y-13032484D02*
X9387782Y-13032484D01*
X9387782Y-13032484D02*
X9406829Y-13042008D01*
X9406829Y-13042008D02*
X9416353Y-13051531D01*
X9416353Y-13051531D02*
X9425877Y-13070579D01*
X9425877Y-13070579D02*
X9435401Y-13108674D01*
X9435401Y-13108674D02*
X9435401Y-13156293D01*
X9435401Y-13156293D02*
X9425877Y-13194388D01*
X9425877Y-13194388D02*
X9416353Y-13213436D01*
X9416353Y-13213436D02*
X9406829Y-13222960D01*
X9406829Y-13222960D02*
X9387782Y-13232484D01*
X9387782Y-13232484D02*
X9368734Y-13232484D01*
X9368734Y-13232484D02*
X9349687Y-13222960D01*
X9349687Y-13222960D02*
X9340163Y-13213436D01*
X9340163Y-13213436D02*
X9330639Y-13194388D01*
X9330639Y-13194388D02*
X9321115Y-13156293D01*
X9321115Y-13156293D02*
X9321115Y-13108674D01*
X9321115Y-13108674D02*
X9330639Y-13070579D01*
X9330639Y-13070579D02*
X9340163Y-13051531D01*
X9340163Y-13051531D02*
X9349687Y-13042008D01*
X9349687Y-13042008D02*
X9368734Y-13032484D01*
X9521115Y-13213436D02*
X9530639Y-13222960D01*
X9530639Y-13222960D02*
X9521115Y-13232484D01*
X9521115Y-13232484D02*
X9511591Y-13222960D01*
X9511591Y-13222960D02*
X9521115Y-13213436D01*
X9521115Y-13213436D02*
X9521115Y-13232484D01*
X9654448Y-13032484D02*
X9673496Y-13032484D01*
X9673496Y-13032484D02*
X9692544Y-13042008D01*
X9692544Y-13042008D02*
X9702068Y-13051531D01*
X9702068Y-13051531D02*
X9711591Y-13070579D01*
X9711591Y-13070579D02*
X9721115Y-13108674D01*
X9721115Y-13108674D02*
X9721115Y-13156293D01*
X9721115Y-13156293D02*
X9711591Y-13194388D01*
X9711591Y-13194388D02*
X9702068Y-13213436D01*
X9702068Y-13213436D02*
X9692544Y-13222960D01*
X9692544Y-13222960D02*
X9673496Y-13232484D01*
X9673496Y-13232484D02*
X9654448Y-13232484D01*
X9654448Y-13232484D02*
X9635401Y-13222960D01*
X9635401Y-13222960D02*
X9625877Y-13213436D01*
X9625877Y-13213436D02*
X9616353Y-13194388D01*
X9616353Y-13194388D02*
X9606829Y-13156293D01*
X9606829Y-13156293D02*
X9606829Y-13108674D01*
X9606829Y-13108674D02*
X9616353Y-13070579D01*
X9616353Y-13070579D02*
X9625877Y-13051531D01*
X9625877Y-13051531D02*
X9635401Y-13042008D01*
X9635401Y-13042008D02*
X9654448Y-13032484D01*
X9892544Y-13099150D02*
X9892544Y-13232484D01*
X9844925Y-13022960D02*
X9797306Y-13165817D01*
X9797306Y-13165817D02*
X9921115Y-13165817D01*
X9978258Y-13032484D02*
X10102068Y-13032484D01*
X10102068Y-13032484D02*
X10035401Y-13108674D01*
X10035401Y-13108674D02*
X10063972Y-13108674D01*
X10063972Y-13108674D02*
X10083020Y-13118198D01*
X10083020Y-13118198D02*
X10092544Y-13127722D01*
X10092544Y-13127722D02*
X10102068Y-13146769D01*
X10102068Y-13146769D02*
X10102068Y-13194388D01*
X10102068Y-13194388D02*
X10092544Y-13213436D01*
X10092544Y-13213436D02*
X10083020Y-13222960D01*
X10083020Y-13222960D02*
X10063972Y-13232484D01*
X10063972Y-13232484D02*
X10006829Y-13232484D01*
X10006829Y-13232484D02*
X9987782Y-13222960D01*
X9987782Y-13222960D02*
X9978258Y-13213436D01*
X10168734Y-13032484D02*
X10292544Y-13032484D01*
X10292544Y-13032484D02*
X10225877Y-13108674D01*
X10225877Y-13108674D02*
X10254449Y-13108674D01*
X10254449Y-13108674D02*
X10273496Y-13118198D01*
X10273496Y-13118198D02*
X10283020Y-13127722D01*
X10283020Y-13127722D02*
X10292544Y-13146769D01*
X10292544Y-13146769D02*
X10292544Y-13194388D01*
X10292544Y-13194388D02*
X10283020Y-13213436D01*
X10283020Y-13213436D02*
X10273496Y-13222960D01*
X10273496Y-13222960D02*
X10254449Y-13232484D01*
X10254449Y-13232484D02*
X10197306Y-13232484D01*
X10197306Y-13232484D02*
X10178258Y-13222960D01*
X10178258Y-13222960D02*
X10168734Y-13213436D01*
X10368734Y-13032484D02*
X10368734Y-13070579D01*
X10444925Y-13032484D02*
X10444925Y-13070579D01*
X10740163Y-13308674D02*
X10730639Y-13299150D01*
X10730639Y-13299150D02*
X10711591Y-13270579D01*
X10711591Y-13270579D02*
X10702068Y-13251531D01*
X10702068Y-13251531D02*
X10692544Y-13222960D01*
X10692544Y-13222960D02*
X10683020Y-13175341D01*
X10683020Y-13175341D02*
X10683020Y-13137246D01*
X10683020Y-13137246D02*
X10692544Y-13089627D01*
X10692544Y-13089627D02*
X10702068Y-13061055D01*
X10702068Y-13061055D02*
X10711591Y-13042008D01*
X10711591Y-13042008D02*
X10730639Y-13013436D01*
X10730639Y-13013436D02*
X10740163Y-13003912D01*
X10797306Y-13032484D02*
X10921115Y-13032484D01*
X10921115Y-13032484D02*
X10854449Y-13108674D01*
X10854449Y-13108674D02*
X10883020Y-13108674D01*
X10883020Y-13108674D02*
X10902068Y-13118198D01*
X10902068Y-13118198D02*
X10911591Y-13127722D01*
X10911591Y-13127722D02*
X10921115Y-13146769D01*
X10921115Y-13146769D02*
X10921115Y-13194388D01*
X10921115Y-13194388D02*
X10911591Y-13213436D01*
X10911591Y-13213436D02*
X10902068Y-13222960D01*
X10902068Y-13222960D02*
X10883020Y-13232484D01*
X10883020Y-13232484D02*
X10825877Y-13232484D01*
X10825877Y-13232484D02*
X10806830Y-13222960D01*
X10806830Y-13222960D02*
X10797306Y-13213436D01*
X11159211Y-13232484D02*
X11159211Y-13032484D01*
X11244925Y-13232484D02*
X11244925Y-13127722D01*
X11244925Y-13127722D02*
X11235401Y-13108674D01*
X11235401Y-13108674D02*
X11216353Y-13099150D01*
X11216353Y-13099150D02*
X11187782Y-13099150D01*
X11187782Y-13099150D02*
X11168734Y-13108674D01*
X11168734Y-13108674D02*
X11159211Y-13118198D01*
X11368734Y-13232484D02*
X11349687Y-13222960D01*
X11349687Y-13222960D02*
X11340163Y-13213436D01*
X11340163Y-13213436D02*
X11330639Y-13194388D01*
X11330639Y-13194388D02*
X11330639Y-13137246D01*
X11330639Y-13137246D02*
X11340163Y-13118198D01*
X11340163Y-13118198D02*
X11349687Y-13108674D01*
X11349687Y-13108674D02*
X11368734Y-13099150D01*
X11368734Y-13099150D02*
X11397306Y-13099150D01*
X11397306Y-13099150D02*
X11416353Y-13108674D01*
X11416353Y-13108674D02*
X11425877Y-13118198D01*
X11425877Y-13118198D02*
X11435401Y-13137246D01*
X11435401Y-13137246D02*
X11435401Y-13194388D01*
X11435401Y-13194388D02*
X11425877Y-13213436D01*
X11425877Y-13213436D02*
X11416353Y-13222960D01*
X11416353Y-13222960D02*
X11397306Y-13232484D01*
X11397306Y-13232484D02*
X11368734Y-13232484D01*
X11549687Y-13232484D02*
X11530639Y-13222960D01*
X11530639Y-13222960D02*
X11521115Y-13203912D01*
X11521115Y-13203912D02*
X11521115Y-13032484D01*
X11702068Y-13222960D02*
X11683020Y-13232484D01*
X11683020Y-13232484D02*
X11644925Y-13232484D01*
X11644925Y-13232484D02*
X11625877Y-13222960D01*
X11625877Y-13222960D02*
X11616353Y-13203912D01*
X11616353Y-13203912D02*
X11616353Y-13127722D01*
X11616353Y-13127722D02*
X11625877Y-13108674D01*
X11625877Y-13108674D02*
X11644925Y-13099150D01*
X11644925Y-13099150D02*
X11683020Y-13099150D01*
X11683020Y-13099150D02*
X11702068Y-13108674D01*
X11702068Y-13108674D02*
X11711591Y-13127722D01*
X11711591Y-13127722D02*
X11711591Y-13146769D01*
X11711591Y-13146769D02*
X11616353Y-13165817D01*
X11787782Y-13222960D02*
X11806830Y-13232484D01*
X11806830Y-13232484D02*
X11844925Y-13232484D01*
X11844925Y-13232484D02*
X11863972Y-13222960D01*
X11863972Y-13222960D02*
X11873496Y-13203912D01*
X11873496Y-13203912D02*
X11873496Y-13194388D01*
X11873496Y-13194388D02*
X11863972Y-13175341D01*
X11863972Y-13175341D02*
X11844925Y-13165817D01*
X11844925Y-13165817D02*
X11816353Y-13165817D01*
X11816353Y-13165817D02*
X11797306Y-13156293D01*
X11797306Y-13156293D02*
X11787782Y-13137246D01*
X11787782Y-13137246D02*
X11787782Y-13127722D01*
X11787782Y-13127722D02*
X11797306Y-13108674D01*
X11797306Y-13108674D02*
X11816353Y-13099150D01*
X11816353Y-13099150D02*
X11844925Y-13099150D01*
X11844925Y-13099150D02*
X11863972Y-13108674D01*
X11940163Y-13308674D02*
X11949687Y-13299150D01*
X11949687Y-13299150D02*
X11968734Y-13270579D01*
X11968734Y-13270579D02*
X11978258Y-13251531D01*
X11978258Y-13251531D02*
X11987782Y-13222960D01*
X11987782Y-13222960D02*
X11997306Y-13175341D01*
X11997306Y-13175341D02*
X11997306Y-13137246D01*
X11997306Y-13137246D02*
X11987782Y-13089627D01*
X11987782Y-13089627D02*
X11978258Y-13061055D01*
X11978258Y-13061055D02*
X11968734Y-13042008D01*
X11968734Y-13042008D02*
X11949687Y-13013436D01*
X11949687Y-13013436D02*
X11940163Y-13003912D01*
D13*
X7045100Y-13345000D02*
X7165100Y-13465000D01*
X7165100Y-13345000D02*
X7045100Y-13465000D01*
X7105100Y-13345000D02*
X7105100Y-13465000D01*
X7045100Y-13405000D02*
X7165100Y-13405000D01*
D11*
X7530639Y-13496484D02*
X7416353Y-13496484D01*
X7473496Y-13496484D02*
X7473496Y-13296484D01*
X7473496Y-13296484D02*
X7454448Y-13325055D01*
X7454448Y-13325055D02*
X7435401Y-13344103D01*
X7435401Y-13344103D02*
X7416353Y-13353627D01*
X7616353Y-13477436D02*
X7625877Y-13486960D01*
X7625877Y-13486960D02*
X7616353Y-13496484D01*
X7616353Y-13496484D02*
X7606829Y-13486960D01*
X7606829Y-13486960D02*
X7616353Y-13477436D01*
X7616353Y-13477436D02*
X7616353Y-13496484D01*
X7702067Y-13315531D02*
X7711591Y-13306008D01*
X7711591Y-13306008D02*
X7730639Y-13296484D01*
X7730639Y-13296484D02*
X7778258Y-13296484D01*
X7778258Y-13296484D02*
X7797305Y-13306008D01*
X7797305Y-13306008D02*
X7806829Y-13315531D01*
X7806829Y-13315531D02*
X7816353Y-13334579D01*
X7816353Y-13334579D02*
X7816353Y-13353627D01*
X7816353Y-13353627D02*
X7806829Y-13382198D01*
X7806829Y-13382198D02*
X7692543Y-13496484D01*
X7692543Y-13496484D02*
X7816353Y-13496484D01*
X7940162Y-13296484D02*
X7959210Y-13296484D01*
X7959210Y-13296484D02*
X7978258Y-13306008D01*
X7978258Y-13306008D02*
X7987782Y-13315531D01*
X7987782Y-13315531D02*
X7997305Y-13334579D01*
X7997305Y-13334579D02*
X8006829Y-13372674D01*
X8006829Y-13372674D02*
X8006829Y-13420293D01*
X8006829Y-13420293D02*
X7997305Y-13458388D01*
X7997305Y-13458388D02*
X7987782Y-13477436D01*
X7987782Y-13477436D02*
X7978258Y-13486960D01*
X7978258Y-13486960D02*
X7959210Y-13496484D01*
X7959210Y-13496484D02*
X7940162Y-13496484D01*
X7940162Y-13496484D02*
X7921115Y-13486960D01*
X7921115Y-13486960D02*
X7911591Y-13477436D01*
X7911591Y-13477436D02*
X7902067Y-13458388D01*
X7902067Y-13458388D02*
X7892543Y-13420293D01*
X7892543Y-13420293D02*
X7892543Y-13372674D01*
X7892543Y-13372674D02*
X7902067Y-13334579D01*
X7902067Y-13334579D02*
X7911591Y-13315531D01*
X7911591Y-13315531D02*
X7921115Y-13306008D01*
X7921115Y-13306008D02*
X7940162Y-13296484D01*
X8130639Y-13296484D02*
X8149686Y-13296484D01*
X8149686Y-13296484D02*
X8168734Y-13306008D01*
X8168734Y-13306008D02*
X8178258Y-13315531D01*
X8178258Y-13315531D02*
X8187782Y-13334579D01*
X8187782Y-13334579D02*
X8197305Y-13372674D01*
X8197305Y-13372674D02*
X8197305Y-13420293D01*
X8197305Y-13420293D02*
X8187782Y-13458388D01*
X8187782Y-13458388D02*
X8178258Y-13477436D01*
X8178258Y-13477436D02*
X8168734Y-13486960D01*
X8168734Y-13486960D02*
X8149686Y-13496484D01*
X8149686Y-13496484D02*
X8130639Y-13496484D01*
X8130639Y-13496484D02*
X8111591Y-13486960D01*
X8111591Y-13486960D02*
X8102067Y-13477436D01*
X8102067Y-13477436D02*
X8092543Y-13458388D01*
X8092543Y-13458388D02*
X8083020Y-13420293D01*
X8083020Y-13420293D02*
X8083020Y-13372674D01*
X8083020Y-13372674D02*
X8092543Y-13334579D01*
X8092543Y-13334579D02*
X8102067Y-13315531D01*
X8102067Y-13315531D02*
X8111591Y-13306008D01*
X8111591Y-13306008D02*
X8130639Y-13296484D01*
X8283020Y-13496484D02*
X8283020Y-13363150D01*
X8283020Y-13382198D02*
X8292543Y-13372674D01*
X8292543Y-13372674D02*
X8311591Y-13363150D01*
X8311591Y-13363150D02*
X8340163Y-13363150D01*
X8340163Y-13363150D02*
X8359210Y-13372674D01*
X8359210Y-13372674D02*
X8368734Y-13391722D01*
X8368734Y-13391722D02*
X8368734Y-13496484D01*
X8368734Y-13391722D02*
X8378258Y-13372674D01*
X8378258Y-13372674D02*
X8397305Y-13363150D01*
X8397305Y-13363150D02*
X8425877Y-13363150D01*
X8425877Y-13363150D02*
X8444925Y-13372674D01*
X8444925Y-13372674D02*
X8454448Y-13391722D01*
X8454448Y-13391722D02*
X8454448Y-13496484D01*
X8549686Y-13496484D02*
X8549686Y-13363150D01*
X8549686Y-13382198D02*
X8559210Y-13372674D01*
X8559210Y-13372674D02*
X8578258Y-13363150D01*
X8578258Y-13363150D02*
X8606829Y-13363150D01*
X8606829Y-13363150D02*
X8625877Y-13372674D01*
X8625877Y-13372674D02*
X8635401Y-13391722D01*
X8635401Y-13391722D02*
X8635401Y-13496484D01*
X8635401Y-13391722D02*
X8644925Y-13372674D01*
X8644925Y-13372674D02*
X8663972Y-13363150D01*
X8663972Y-13363150D02*
X8692544Y-13363150D01*
X8692544Y-13363150D02*
X8711591Y-13372674D01*
X8711591Y-13372674D02*
X8721115Y-13391722D01*
X8721115Y-13391722D02*
X8721115Y-13496484D01*
X9111591Y-13286960D02*
X8940163Y-13544103D01*
X9368734Y-13296484D02*
X9387782Y-13296484D01*
X9387782Y-13296484D02*
X9406829Y-13306008D01*
X9406829Y-13306008D02*
X9416353Y-13315531D01*
X9416353Y-13315531D02*
X9425877Y-13334579D01*
X9425877Y-13334579D02*
X9435401Y-13372674D01*
X9435401Y-13372674D02*
X9435401Y-13420293D01*
X9435401Y-13420293D02*
X9425877Y-13458388D01*
X9425877Y-13458388D02*
X9416353Y-13477436D01*
X9416353Y-13477436D02*
X9406829Y-13486960D01*
X9406829Y-13486960D02*
X9387782Y-13496484D01*
X9387782Y-13496484D02*
X9368734Y-13496484D01*
X9368734Y-13496484D02*
X9349687Y-13486960D01*
X9349687Y-13486960D02*
X9340163Y-13477436D01*
X9340163Y-13477436D02*
X9330639Y-13458388D01*
X9330639Y-13458388D02*
X9321115Y-13420293D01*
X9321115Y-13420293D02*
X9321115Y-13372674D01*
X9321115Y-13372674D02*
X9330639Y-13334579D01*
X9330639Y-13334579D02*
X9340163Y-13315531D01*
X9340163Y-13315531D02*
X9349687Y-13306008D01*
X9349687Y-13306008D02*
X9368734Y-13296484D01*
X9521115Y-13477436D02*
X9530639Y-13486960D01*
X9530639Y-13486960D02*
X9521115Y-13496484D01*
X9521115Y-13496484D02*
X9511591Y-13486960D01*
X9511591Y-13486960D02*
X9521115Y-13477436D01*
X9521115Y-13477436D02*
X9521115Y-13496484D01*
X9654448Y-13296484D02*
X9673496Y-13296484D01*
X9673496Y-13296484D02*
X9692544Y-13306008D01*
X9692544Y-13306008D02*
X9702068Y-13315531D01*
X9702068Y-13315531D02*
X9711591Y-13334579D01*
X9711591Y-13334579D02*
X9721115Y-13372674D01*
X9721115Y-13372674D02*
X9721115Y-13420293D01*
X9721115Y-13420293D02*
X9711591Y-13458388D01*
X9711591Y-13458388D02*
X9702068Y-13477436D01*
X9702068Y-13477436D02*
X9692544Y-13486960D01*
X9692544Y-13486960D02*
X9673496Y-13496484D01*
X9673496Y-13496484D02*
X9654448Y-13496484D01*
X9654448Y-13496484D02*
X9635401Y-13486960D01*
X9635401Y-13486960D02*
X9625877Y-13477436D01*
X9625877Y-13477436D02*
X9616353Y-13458388D01*
X9616353Y-13458388D02*
X9606829Y-13420293D01*
X9606829Y-13420293D02*
X9606829Y-13372674D01*
X9606829Y-13372674D02*
X9616353Y-13334579D01*
X9616353Y-13334579D02*
X9625877Y-13315531D01*
X9625877Y-13315531D02*
X9635401Y-13306008D01*
X9635401Y-13306008D02*
X9654448Y-13296484D01*
X9892544Y-13363150D02*
X9892544Y-13496484D01*
X9844925Y-13286960D02*
X9797306Y-13429817D01*
X9797306Y-13429817D02*
X9921115Y-13429817D01*
X9978258Y-13296484D02*
X10111591Y-13296484D01*
X10111591Y-13296484D02*
X10025877Y-13496484D01*
X10178258Y-13315531D02*
X10187782Y-13306008D01*
X10187782Y-13306008D02*
X10206829Y-13296484D01*
X10206829Y-13296484D02*
X10254449Y-13296484D01*
X10254449Y-13296484D02*
X10273496Y-13306008D01*
X10273496Y-13306008D02*
X10283020Y-13315531D01*
X10283020Y-13315531D02*
X10292544Y-13334579D01*
X10292544Y-13334579D02*
X10292544Y-13353627D01*
X10292544Y-13353627D02*
X10283020Y-13382198D01*
X10283020Y-13382198D02*
X10168734Y-13496484D01*
X10168734Y-13496484D02*
X10292544Y-13496484D01*
X10368734Y-13296484D02*
X10368734Y-13334579D01*
X10444925Y-13296484D02*
X10444925Y-13334579D01*
X10740163Y-13572674D02*
X10730639Y-13563150D01*
X10730639Y-13563150D02*
X10711591Y-13534579D01*
X10711591Y-13534579D02*
X10702068Y-13515531D01*
X10702068Y-13515531D02*
X10692544Y-13486960D01*
X10692544Y-13486960D02*
X10683020Y-13439341D01*
X10683020Y-13439341D02*
X10683020Y-13401246D01*
X10683020Y-13401246D02*
X10692544Y-13353627D01*
X10692544Y-13353627D02*
X10702068Y-13325055D01*
X10702068Y-13325055D02*
X10711591Y-13306008D01*
X10711591Y-13306008D02*
X10730639Y-13277436D01*
X10730639Y-13277436D02*
X10740163Y-13267912D01*
X10921115Y-13496484D02*
X10806830Y-13496484D01*
X10863972Y-13496484D02*
X10863972Y-13296484D01*
X10863972Y-13296484D02*
X10844925Y-13325055D01*
X10844925Y-13325055D02*
X10825877Y-13344103D01*
X10825877Y-13344103D02*
X10806830Y-13353627D01*
X10997306Y-13315531D02*
X11006830Y-13306008D01*
X11006830Y-13306008D02*
X11025877Y-13296484D01*
X11025877Y-13296484D02*
X11073496Y-13296484D01*
X11073496Y-13296484D02*
X11092544Y-13306008D01*
X11092544Y-13306008D02*
X11102068Y-13315531D01*
X11102068Y-13315531D02*
X11111591Y-13334579D01*
X11111591Y-13334579D02*
X11111591Y-13353627D01*
X11111591Y-13353627D02*
X11102068Y-13382198D01*
X11102068Y-13382198D02*
X10987782Y-13496484D01*
X10987782Y-13496484D02*
X11111591Y-13496484D01*
X11349687Y-13496484D02*
X11349687Y-13296484D01*
X11435401Y-13496484D02*
X11435401Y-13391722D01*
X11435401Y-13391722D02*
X11425877Y-13372674D01*
X11425877Y-13372674D02*
X11406830Y-13363150D01*
X11406830Y-13363150D02*
X11378258Y-13363150D01*
X11378258Y-13363150D02*
X11359210Y-13372674D01*
X11359210Y-13372674D02*
X11349687Y-13382198D01*
X11559210Y-13496484D02*
X11540163Y-13486960D01*
X11540163Y-13486960D02*
X11530639Y-13477436D01*
X11530639Y-13477436D02*
X11521115Y-13458388D01*
X11521115Y-13458388D02*
X11521115Y-13401246D01*
X11521115Y-13401246D02*
X11530639Y-13382198D01*
X11530639Y-13382198D02*
X11540163Y-13372674D01*
X11540163Y-13372674D02*
X11559210Y-13363150D01*
X11559210Y-13363150D02*
X11587782Y-13363150D01*
X11587782Y-13363150D02*
X11606830Y-13372674D01*
X11606830Y-13372674D02*
X11616353Y-13382198D01*
X11616353Y-13382198D02*
X11625877Y-13401246D01*
X11625877Y-13401246D02*
X11625877Y-13458388D01*
X11625877Y-13458388D02*
X11616353Y-13477436D01*
X11616353Y-13477436D02*
X11606830Y-13486960D01*
X11606830Y-13486960D02*
X11587782Y-13496484D01*
X11587782Y-13496484D02*
X11559210Y-13496484D01*
X11740163Y-13496484D02*
X11721115Y-13486960D01*
X11721115Y-13486960D02*
X11711591Y-13467912D01*
X11711591Y-13467912D02*
X11711591Y-13296484D01*
X11892544Y-13486960D02*
X11873496Y-13496484D01*
X11873496Y-13496484D02*
X11835401Y-13496484D01*
X11835401Y-13496484D02*
X11816353Y-13486960D01*
X11816353Y-13486960D02*
X11806830Y-13467912D01*
X11806830Y-13467912D02*
X11806830Y-13391722D01*
X11806830Y-13391722D02*
X11816353Y-13372674D01*
X11816353Y-13372674D02*
X11835401Y-13363150D01*
X11835401Y-13363150D02*
X11873496Y-13363150D01*
X11873496Y-13363150D02*
X11892544Y-13372674D01*
X11892544Y-13372674D02*
X11902068Y-13391722D01*
X11902068Y-13391722D02*
X11902068Y-13410769D01*
X11902068Y-13410769D02*
X11806830Y-13429817D01*
X11978258Y-13486960D02*
X11997306Y-13496484D01*
X11997306Y-13496484D02*
X12035401Y-13496484D01*
X12035401Y-13496484D02*
X12054449Y-13486960D01*
X12054449Y-13486960D02*
X12063972Y-13467912D01*
X12063972Y-13467912D02*
X12063972Y-13458388D01*
X12063972Y-13458388D02*
X12054449Y-13439341D01*
X12054449Y-13439341D02*
X12035401Y-13429817D01*
X12035401Y-13429817D02*
X12006830Y-13429817D01*
X12006830Y-13429817D02*
X11987782Y-13420293D01*
X11987782Y-13420293D02*
X11978258Y-13401246D01*
X11978258Y-13401246D02*
X11978258Y-13391722D01*
X11978258Y-13391722D02*
X11987782Y-13372674D01*
X11987782Y-13372674D02*
X12006830Y-13363150D01*
X12006830Y-13363150D02*
X12035401Y-13363150D01*
X12035401Y-13363150D02*
X12054449Y-13372674D01*
X12130639Y-13572674D02*
X12140163Y-13563150D01*
X12140163Y-13563150D02*
X12159211Y-13534579D01*
X12159211Y-13534579D02*
X12168734Y-13515531D01*
X12168734Y-13515531D02*
X12178258Y-13486960D01*
X12178258Y-13486960D02*
X12187782Y-13439341D01*
X12187782Y-13439341D02*
X12187782Y-13401246D01*
X12187782Y-13401246D02*
X12178258Y-13353627D01*
X12178258Y-13353627D02*
X12168734Y-13325055D01*
X12168734Y-13325055D02*
X12159211Y-13306008D01*
X12159211Y-13306008D02*
X12140163Y-13277436D01*
X12140163Y-13277436D02*
X12130639Y-13267912D01*
D14*
X7035100Y-13604000D02*
X7165100Y-13734000D01*
X7165100Y-13604000D02*
X7035100Y-13734000D01*
X7146062Y-13714962D02*
X7146062Y-13623038D01*
X7054138Y-13623038D01*
X7054138Y-13714962D01*
X7146062Y-13714962D01*
D11*
X7530639Y-13760484D02*
X7416353Y-13760484D01*
X7473496Y-13760484D02*
X7473496Y-13560484D01*
X7473496Y-13560484D02*
X7454448Y-13589055D01*
X7454448Y-13589055D02*
X7435401Y-13608103D01*
X7435401Y-13608103D02*
X7416353Y-13617627D01*
X7616353Y-13741436D02*
X7625877Y-13750960D01*
X7625877Y-13750960D02*
X7616353Y-13760484D01*
X7616353Y-13760484D02*
X7606829Y-13750960D01*
X7606829Y-13750960D02*
X7616353Y-13741436D01*
X7616353Y-13741436D02*
X7616353Y-13760484D01*
X7692543Y-13560484D02*
X7816353Y-13560484D01*
X7816353Y-13560484D02*
X7749686Y-13636674D01*
X7749686Y-13636674D02*
X7778258Y-13636674D01*
X7778258Y-13636674D02*
X7797305Y-13646198D01*
X7797305Y-13646198D02*
X7806829Y-13655722D01*
X7806829Y-13655722D02*
X7816353Y-13674769D01*
X7816353Y-13674769D02*
X7816353Y-13722388D01*
X7816353Y-13722388D02*
X7806829Y-13741436D01*
X7806829Y-13741436D02*
X7797305Y-13750960D01*
X7797305Y-13750960D02*
X7778258Y-13760484D01*
X7778258Y-13760484D02*
X7721115Y-13760484D01*
X7721115Y-13760484D02*
X7702067Y-13750960D01*
X7702067Y-13750960D02*
X7692543Y-13741436D01*
X7940162Y-13560484D02*
X7959210Y-13560484D01*
X7959210Y-13560484D02*
X7978258Y-13570008D01*
X7978258Y-13570008D02*
X7987782Y-13579531D01*
X7987782Y-13579531D02*
X7997305Y-13598579D01*
X7997305Y-13598579D02*
X8006829Y-13636674D01*
X8006829Y-13636674D02*
X8006829Y-13684293D01*
X8006829Y-13684293D02*
X7997305Y-13722388D01*
X7997305Y-13722388D02*
X7987782Y-13741436D01*
X7987782Y-13741436D02*
X7978258Y-13750960D01*
X7978258Y-13750960D02*
X7959210Y-13760484D01*
X7959210Y-13760484D02*
X7940162Y-13760484D01*
X7940162Y-13760484D02*
X7921115Y-13750960D01*
X7921115Y-13750960D02*
X7911591Y-13741436D01*
X7911591Y-13741436D02*
X7902067Y-13722388D01*
X7902067Y-13722388D02*
X7892543Y-13684293D01*
X7892543Y-13684293D02*
X7892543Y-13636674D01*
X7892543Y-13636674D02*
X7902067Y-13598579D01*
X7902067Y-13598579D02*
X7911591Y-13579531D01*
X7911591Y-13579531D02*
X7921115Y-13570008D01*
X7921115Y-13570008D02*
X7940162Y-13560484D01*
X8130639Y-13560484D02*
X8149686Y-13560484D01*
X8149686Y-13560484D02*
X8168734Y-13570008D01*
X8168734Y-13570008D02*
X8178258Y-13579531D01*
X8178258Y-13579531D02*
X8187782Y-13598579D01*
X8187782Y-13598579D02*
X8197305Y-13636674D01*
X8197305Y-13636674D02*
X8197305Y-13684293D01*
X8197305Y-13684293D02*
X8187782Y-13722388D01*
X8187782Y-13722388D02*
X8178258Y-13741436D01*
X8178258Y-13741436D02*
X8168734Y-13750960D01*
X8168734Y-13750960D02*
X8149686Y-13760484D01*
X8149686Y-13760484D02*
X8130639Y-13760484D01*
X8130639Y-13760484D02*
X8111591Y-13750960D01*
X8111591Y-13750960D02*
X8102067Y-13741436D01*
X8102067Y-13741436D02*
X8092543Y-13722388D01*
X8092543Y-13722388D02*
X8083020Y-13684293D01*
X8083020Y-13684293D02*
X8083020Y-13636674D01*
X8083020Y-13636674D02*
X8092543Y-13598579D01*
X8092543Y-13598579D02*
X8102067Y-13579531D01*
X8102067Y-13579531D02*
X8111591Y-13570008D01*
X8111591Y-13570008D02*
X8130639Y-13560484D01*
X8283020Y-13760484D02*
X8283020Y-13627150D01*
X8283020Y-13646198D02*
X8292543Y-13636674D01*
X8292543Y-13636674D02*
X8311591Y-13627150D01*
X8311591Y-13627150D02*
X8340163Y-13627150D01*
X8340163Y-13627150D02*
X8359210Y-13636674D01*
X8359210Y-13636674D02*
X8368734Y-13655722D01*
X8368734Y-13655722D02*
X8368734Y-13760484D01*
X8368734Y-13655722D02*
X8378258Y-13636674D01*
X8378258Y-13636674D02*
X8397305Y-13627150D01*
X8397305Y-13627150D02*
X8425877Y-13627150D01*
X8425877Y-13627150D02*
X8444925Y-13636674D01*
X8444925Y-13636674D02*
X8454448Y-13655722D01*
X8454448Y-13655722D02*
X8454448Y-13760484D01*
X8549686Y-13760484D02*
X8549686Y-13627150D01*
X8549686Y-13646198D02*
X8559210Y-13636674D01*
X8559210Y-13636674D02*
X8578258Y-13627150D01*
X8578258Y-13627150D02*
X8606829Y-13627150D01*
X8606829Y-13627150D02*
X8625877Y-13636674D01*
X8625877Y-13636674D02*
X8635401Y-13655722D01*
X8635401Y-13655722D02*
X8635401Y-13760484D01*
X8635401Y-13655722D02*
X8644925Y-13636674D01*
X8644925Y-13636674D02*
X8663972Y-13627150D01*
X8663972Y-13627150D02*
X8692544Y-13627150D01*
X8692544Y-13627150D02*
X8711591Y-13636674D01*
X8711591Y-13636674D02*
X8721115Y-13655722D01*
X8721115Y-13655722D02*
X8721115Y-13760484D01*
X9111591Y-13550960D02*
X8940163Y-13808103D01*
X9368734Y-13560484D02*
X9387782Y-13560484D01*
X9387782Y-13560484D02*
X9406829Y-13570008D01*
X9406829Y-13570008D02*
X9416353Y-13579531D01*
X9416353Y-13579531D02*
X9425877Y-13598579D01*
X9425877Y-13598579D02*
X9435401Y-13636674D01*
X9435401Y-13636674D02*
X9435401Y-13684293D01*
X9435401Y-13684293D02*
X9425877Y-13722388D01*
X9425877Y-13722388D02*
X9416353Y-13741436D01*
X9416353Y-13741436D02*
X9406829Y-13750960D01*
X9406829Y-13750960D02*
X9387782Y-13760484D01*
X9387782Y-13760484D02*
X9368734Y-13760484D01*
X9368734Y-13760484D02*
X9349687Y-13750960D01*
X9349687Y-13750960D02*
X9340163Y-13741436D01*
X9340163Y-13741436D02*
X9330639Y-13722388D01*
X9330639Y-13722388D02*
X9321115Y-13684293D01*
X9321115Y-13684293D02*
X9321115Y-13636674D01*
X9321115Y-13636674D02*
X9330639Y-13598579D01*
X9330639Y-13598579D02*
X9340163Y-13579531D01*
X9340163Y-13579531D02*
X9349687Y-13570008D01*
X9349687Y-13570008D02*
X9368734Y-13560484D01*
X9521115Y-13741436D02*
X9530639Y-13750960D01*
X9530639Y-13750960D02*
X9521115Y-13760484D01*
X9521115Y-13760484D02*
X9511591Y-13750960D01*
X9511591Y-13750960D02*
X9521115Y-13741436D01*
X9521115Y-13741436D02*
X9521115Y-13760484D01*
X9654448Y-13560484D02*
X9673496Y-13560484D01*
X9673496Y-13560484D02*
X9692544Y-13570008D01*
X9692544Y-13570008D02*
X9702068Y-13579531D01*
X9702068Y-13579531D02*
X9711591Y-13598579D01*
X9711591Y-13598579D02*
X9721115Y-13636674D01*
X9721115Y-13636674D02*
X9721115Y-13684293D01*
X9721115Y-13684293D02*
X9711591Y-13722388D01*
X9711591Y-13722388D02*
X9702068Y-13741436D01*
X9702068Y-13741436D02*
X9692544Y-13750960D01*
X9692544Y-13750960D02*
X9673496Y-13760484D01*
X9673496Y-13760484D02*
X9654448Y-13760484D01*
X9654448Y-13760484D02*
X9635401Y-13750960D01*
X9635401Y-13750960D02*
X9625877Y-13741436D01*
X9625877Y-13741436D02*
X9616353Y-13722388D01*
X9616353Y-13722388D02*
X9606829Y-13684293D01*
X9606829Y-13684293D02*
X9606829Y-13636674D01*
X9606829Y-13636674D02*
X9616353Y-13598579D01*
X9616353Y-13598579D02*
X9625877Y-13579531D01*
X9625877Y-13579531D02*
X9635401Y-13570008D01*
X9635401Y-13570008D02*
X9654448Y-13560484D01*
X9902068Y-13560484D02*
X9806829Y-13560484D01*
X9806829Y-13560484D02*
X9797306Y-13655722D01*
X9797306Y-13655722D02*
X9806829Y-13646198D01*
X9806829Y-13646198D02*
X9825877Y-13636674D01*
X9825877Y-13636674D02*
X9873496Y-13636674D01*
X9873496Y-13636674D02*
X9892544Y-13646198D01*
X9892544Y-13646198D02*
X9902068Y-13655722D01*
X9902068Y-13655722D02*
X9911591Y-13674769D01*
X9911591Y-13674769D02*
X9911591Y-13722388D01*
X9911591Y-13722388D02*
X9902068Y-13741436D01*
X9902068Y-13741436D02*
X9892544Y-13750960D01*
X9892544Y-13750960D02*
X9873496Y-13760484D01*
X9873496Y-13760484D02*
X9825877Y-13760484D01*
X9825877Y-13760484D02*
X9806829Y-13750960D01*
X9806829Y-13750960D02*
X9797306Y-13741436D01*
X10102068Y-13760484D02*
X9987782Y-13760484D01*
X10044925Y-13760484D02*
X10044925Y-13560484D01*
X10044925Y-13560484D02*
X10025877Y-13589055D01*
X10025877Y-13589055D02*
X10006829Y-13608103D01*
X10006829Y-13608103D02*
X9987782Y-13617627D01*
X10178258Y-13579531D02*
X10187782Y-13570008D01*
X10187782Y-13570008D02*
X10206829Y-13560484D01*
X10206829Y-13560484D02*
X10254449Y-13560484D01*
X10254449Y-13560484D02*
X10273496Y-13570008D01*
X10273496Y-13570008D02*
X10283020Y-13579531D01*
X10283020Y-13579531D02*
X10292544Y-13598579D01*
X10292544Y-13598579D02*
X10292544Y-13617627D01*
X10292544Y-13617627D02*
X10283020Y-13646198D01*
X10283020Y-13646198D02*
X10168734Y-13760484D01*
X10168734Y-13760484D02*
X10292544Y-13760484D01*
X10368734Y-13560484D02*
X10368734Y-13598579D01*
X10444925Y-13560484D02*
X10444925Y-13598579D01*
X10740163Y-13836674D02*
X10730639Y-13827150D01*
X10730639Y-13827150D02*
X10711591Y-13798579D01*
X10711591Y-13798579D02*
X10702068Y-13779531D01*
X10702068Y-13779531D02*
X10692544Y-13750960D01*
X10692544Y-13750960D02*
X10683020Y-13703341D01*
X10683020Y-13703341D02*
X10683020Y-13665246D01*
X10683020Y-13665246D02*
X10692544Y-13617627D01*
X10692544Y-13617627D02*
X10702068Y-13589055D01*
X10702068Y-13589055D02*
X10711591Y-13570008D01*
X10711591Y-13570008D02*
X10730639Y-13541436D01*
X10730639Y-13541436D02*
X10740163Y-13531912D01*
X10902068Y-13627150D02*
X10902068Y-13760484D01*
X10854449Y-13550960D02*
X10806830Y-13693817D01*
X10806830Y-13693817D02*
X10930639Y-13693817D01*
X11159211Y-13760484D02*
X11159211Y-13560484D01*
X11244925Y-13760484D02*
X11244925Y-13655722D01*
X11244925Y-13655722D02*
X11235401Y-13636674D01*
X11235401Y-13636674D02*
X11216353Y-13627150D01*
X11216353Y-13627150D02*
X11187782Y-13627150D01*
X11187782Y-13627150D02*
X11168734Y-13636674D01*
X11168734Y-13636674D02*
X11159211Y-13646198D01*
X11368734Y-13760484D02*
X11349687Y-13750960D01*
X11349687Y-13750960D02*
X11340163Y-13741436D01*
X11340163Y-13741436D02*
X11330639Y-13722388D01*
X11330639Y-13722388D02*
X11330639Y-13665246D01*
X11330639Y-13665246D02*
X11340163Y-13646198D01*
X11340163Y-13646198D02*
X11349687Y-13636674D01*
X11349687Y-13636674D02*
X11368734Y-13627150D01*
X11368734Y-13627150D02*
X11397306Y-13627150D01*
X11397306Y-13627150D02*
X11416353Y-13636674D01*
X11416353Y-13636674D02*
X11425877Y-13646198D01*
X11425877Y-13646198D02*
X11435401Y-13665246D01*
X11435401Y-13665246D02*
X11435401Y-13722388D01*
X11435401Y-13722388D02*
X11425877Y-13741436D01*
X11425877Y-13741436D02*
X11416353Y-13750960D01*
X11416353Y-13750960D02*
X11397306Y-13760484D01*
X11397306Y-13760484D02*
X11368734Y-13760484D01*
X11549687Y-13760484D02*
X11530639Y-13750960D01*
X11530639Y-13750960D02*
X11521115Y-13731912D01*
X11521115Y-13731912D02*
X11521115Y-13560484D01*
X11702068Y-13750960D02*
X11683020Y-13760484D01*
X11683020Y-13760484D02*
X11644925Y-13760484D01*
X11644925Y-13760484D02*
X11625877Y-13750960D01*
X11625877Y-13750960D02*
X11616353Y-13731912D01*
X11616353Y-13731912D02*
X11616353Y-13655722D01*
X11616353Y-13655722D02*
X11625877Y-13636674D01*
X11625877Y-13636674D02*
X11644925Y-13627150D01*
X11644925Y-13627150D02*
X11683020Y-13627150D01*
X11683020Y-13627150D02*
X11702068Y-13636674D01*
X11702068Y-13636674D02*
X11711591Y-13655722D01*
X11711591Y-13655722D02*
X11711591Y-13674769D01*
X11711591Y-13674769D02*
X11616353Y-13693817D01*
X11787782Y-13750960D02*
X11806830Y-13760484D01*
X11806830Y-13760484D02*
X11844925Y-13760484D01*
X11844925Y-13760484D02*
X11863972Y-13750960D01*
X11863972Y-13750960D02*
X11873496Y-13731912D01*
X11873496Y-13731912D02*
X11873496Y-13722388D01*
X11873496Y-13722388D02*
X11863972Y-13703341D01*
X11863972Y-13703341D02*
X11844925Y-13693817D01*
X11844925Y-13693817D02*
X11816353Y-13693817D01*
X11816353Y-13693817D02*
X11797306Y-13684293D01*
X11797306Y-13684293D02*
X11787782Y-13665246D01*
X11787782Y-13665246D02*
X11787782Y-13655722D01*
X11787782Y-13655722D02*
X11797306Y-13636674D01*
X11797306Y-13636674D02*
X11816353Y-13627150D01*
X11816353Y-13627150D02*
X11844925Y-13627150D01*
X11844925Y-13627150D02*
X11863972Y-13636674D01*
X11940163Y-13836674D02*
X11949687Y-13827150D01*
X11949687Y-13827150D02*
X11968734Y-13798579D01*
X11968734Y-13798579D02*
X11978258Y-13779531D01*
X11978258Y-13779531D02*
X11987782Y-13750960D01*
X11987782Y-13750960D02*
X11997306Y-13703341D01*
X11997306Y-13703341D02*
X11997306Y-13665246D01*
X11997306Y-13665246D02*
X11987782Y-13617627D01*
X11987782Y-13617627D02*
X11978258Y-13589055D01*
X11978258Y-13589055D02*
X11968734Y-13570008D01*
X11968734Y-13570008D02*
X11949687Y-13541436D01*
X11949687Y-13541436D02*
X11940163Y-13531912D01*
D15*
X6985100Y-13843000D02*
X7165100Y-14023000D01*
X7165100Y-13843000D02*
X6985100Y-14023000D01*
X7075100Y-14023000D02*
X7165100Y-13933000D01*
X7075100Y-13843000D01*
X6985100Y-13933000D01*
X7075100Y-14023000D01*
D11*
X7530639Y-14024484D02*
X7416353Y-14024484D01*
X7473496Y-14024484D02*
X7473496Y-13824484D01*
X7473496Y-13824484D02*
X7454448Y-13853055D01*
X7454448Y-13853055D02*
X7435401Y-13872103D01*
X7435401Y-13872103D02*
X7416353Y-13881627D01*
X7616353Y-14005436D02*
X7625877Y-14014960D01*
X7625877Y-14014960D02*
X7616353Y-14024484D01*
X7616353Y-14024484D02*
X7606829Y-14014960D01*
X7606829Y-14014960D02*
X7616353Y-14005436D01*
X7616353Y-14005436D02*
X7616353Y-14024484D01*
X7740162Y-13910198D02*
X7721115Y-13900674D01*
X7721115Y-13900674D02*
X7711591Y-13891150D01*
X7711591Y-13891150D02*
X7702067Y-13872103D01*
X7702067Y-13872103D02*
X7702067Y-13862579D01*
X7702067Y-13862579D02*
X7711591Y-13843531D01*
X7711591Y-13843531D02*
X7721115Y-13834008D01*
X7721115Y-13834008D02*
X7740162Y-13824484D01*
X7740162Y-13824484D02*
X7778258Y-13824484D01*
X7778258Y-13824484D02*
X7797305Y-13834008D01*
X7797305Y-13834008D02*
X7806829Y-13843531D01*
X7806829Y-13843531D02*
X7816353Y-13862579D01*
X7816353Y-13862579D02*
X7816353Y-13872103D01*
X7816353Y-13872103D02*
X7806829Y-13891150D01*
X7806829Y-13891150D02*
X7797305Y-13900674D01*
X7797305Y-13900674D02*
X7778258Y-13910198D01*
X7778258Y-13910198D02*
X7740162Y-13910198D01*
X7740162Y-13910198D02*
X7721115Y-13919722D01*
X7721115Y-13919722D02*
X7711591Y-13929246D01*
X7711591Y-13929246D02*
X7702067Y-13948293D01*
X7702067Y-13948293D02*
X7702067Y-13986388D01*
X7702067Y-13986388D02*
X7711591Y-14005436D01*
X7711591Y-14005436D02*
X7721115Y-14014960D01*
X7721115Y-14014960D02*
X7740162Y-14024484D01*
X7740162Y-14024484D02*
X7778258Y-14024484D01*
X7778258Y-14024484D02*
X7797305Y-14014960D01*
X7797305Y-14014960D02*
X7806829Y-14005436D01*
X7806829Y-14005436D02*
X7816353Y-13986388D01*
X7816353Y-13986388D02*
X7816353Y-13948293D01*
X7816353Y-13948293D02*
X7806829Y-13929246D01*
X7806829Y-13929246D02*
X7797305Y-13919722D01*
X7797305Y-13919722D02*
X7778258Y-13910198D01*
X7940162Y-13824484D02*
X7959210Y-13824484D01*
X7959210Y-13824484D02*
X7978258Y-13834008D01*
X7978258Y-13834008D02*
X7987782Y-13843531D01*
X7987782Y-13843531D02*
X7997305Y-13862579D01*
X7997305Y-13862579D02*
X8006829Y-13900674D01*
X8006829Y-13900674D02*
X8006829Y-13948293D01*
X8006829Y-13948293D02*
X7997305Y-13986388D01*
X7997305Y-13986388D02*
X7987782Y-14005436D01*
X7987782Y-14005436D02*
X7978258Y-14014960D01*
X7978258Y-14014960D02*
X7959210Y-14024484D01*
X7959210Y-14024484D02*
X7940162Y-14024484D01*
X7940162Y-14024484D02*
X7921115Y-14014960D01*
X7921115Y-14014960D02*
X7911591Y-14005436D01*
X7911591Y-14005436D02*
X7902067Y-13986388D01*
X7902067Y-13986388D02*
X7892543Y-13948293D01*
X7892543Y-13948293D02*
X7892543Y-13900674D01*
X7892543Y-13900674D02*
X7902067Y-13862579D01*
X7902067Y-13862579D02*
X7911591Y-13843531D01*
X7911591Y-13843531D02*
X7921115Y-13834008D01*
X7921115Y-13834008D02*
X7940162Y-13824484D01*
X8130639Y-13824484D02*
X8149686Y-13824484D01*
X8149686Y-13824484D02*
X8168734Y-13834008D01*
X8168734Y-13834008D02*
X8178258Y-13843531D01*
X8178258Y-13843531D02*
X8187782Y-13862579D01*
X8187782Y-13862579D02*
X8197305Y-13900674D01*
X8197305Y-13900674D02*
X8197305Y-13948293D01*
X8197305Y-13948293D02*
X8187782Y-13986388D01*
X8187782Y-13986388D02*
X8178258Y-14005436D01*
X8178258Y-14005436D02*
X8168734Y-14014960D01*
X8168734Y-14014960D02*
X8149686Y-14024484D01*
X8149686Y-14024484D02*
X8130639Y-14024484D01*
X8130639Y-14024484D02*
X8111591Y-14014960D01*
X8111591Y-14014960D02*
X8102067Y-14005436D01*
X8102067Y-14005436D02*
X8092543Y-13986388D01*
X8092543Y-13986388D02*
X8083020Y-13948293D01*
X8083020Y-13948293D02*
X8083020Y-13900674D01*
X8083020Y-13900674D02*
X8092543Y-13862579D01*
X8092543Y-13862579D02*
X8102067Y-13843531D01*
X8102067Y-13843531D02*
X8111591Y-13834008D01*
X8111591Y-13834008D02*
X8130639Y-13824484D01*
X8283020Y-14024484D02*
X8283020Y-13891150D01*
X8283020Y-13910198D02*
X8292543Y-13900674D01*
X8292543Y-13900674D02*
X8311591Y-13891150D01*
X8311591Y-13891150D02*
X8340163Y-13891150D01*
X8340163Y-13891150D02*
X8359210Y-13900674D01*
X8359210Y-13900674D02*
X8368734Y-13919722D01*
X8368734Y-13919722D02*
X8368734Y-14024484D01*
X8368734Y-13919722D02*
X8378258Y-13900674D01*
X8378258Y-13900674D02*
X8397305Y-13891150D01*
X8397305Y-13891150D02*
X8425877Y-13891150D01*
X8425877Y-13891150D02*
X8444925Y-13900674D01*
X8444925Y-13900674D02*
X8454448Y-13919722D01*
X8454448Y-13919722D02*
X8454448Y-14024484D01*
X8549686Y-14024484D02*
X8549686Y-13891150D01*
X8549686Y-13910198D02*
X8559210Y-13900674D01*
X8559210Y-13900674D02*
X8578258Y-13891150D01*
X8578258Y-13891150D02*
X8606829Y-13891150D01*
X8606829Y-13891150D02*
X8625877Y-13900674D01*
X8625877Y-13900674D02*
X8635401Y-13919722D01*
X8635401Y-13919722D02*
X8635401Y-14024484D01*
X8635401Y-13919722D02*
X8644925Y-13900674D01*
X8644925Y-13900674D02*
X8663972Y-13891150D01*
X8663972Y-13891150D02*
X8692544Y-13891150D01*
X8692544Y-13891150D02*
X8711591Y-13900674D01*
X8711591Y-13900674D02*
X8721115Y-13919722D01*
X8721115Y-13919722D02*
X8721115Y-14024484D01*
X9111591Y-13814960D02*
X8940163Y-14072103D01*
X9368734Y-13824484D02*
X9387782Y-13824484D01*
X9387782Y-13824484D02*
X9406829Y-13834008D01*
X9406829Y-13834008D02*
X9416353Y-13843531D01*
X9416353Y-13843531D02*
X9425877Y-13862579D01*
X9425877Y-13862579D02*
X9435401Y-13900674D01*
X9435401Y-13900674D02*
X9435401Y-13948293D01*
X9435401Y-13948293D02*
X9425877Y-13986388D01*
X9425877Y-13986388D02*
X9416353Y-14005436D01*
X9416353Y-14005436D02*
X9406829Y-14014960D01*
X9406829Y-14014960D02*
X9387782Y-14024484D01*
X9387782Y-14024484D02*
X9368734Y-14024484D01*
X9368734Y-14024484D02*
X9349687Y-14014960D01*
X9349687Y-14014960D02*
X9340163Y-14005436D01*
X9340163Y-14005436D02*
X9330639Y-13986388D01*
X9330639Y-13986388D02*
X9321115Y-13948293D01*
X9321115Y-13948293D02*
X9321115Y-13900674D01*
X9321115Y-13900674D02*
X9330639Y-13862579D01*
X9330639Y-13862579D02*
X9340163Y-13843531D01*
X9340163Y-13843531D02*
X9349687Y-13834008D01*
X9349687Y-13834008D02*
X9368734Y-13824484D01*
X9521115Y-14005436D02*
X9530639Y-14014960D01*
X9530639Y-14014960D02*
X9521115Y-14024484D01*
X9521115Y-14024484D02*
X9511591Y-14014960D01*
X9511591Y-14014960D02*
X9521115Y-14005436D01*
X9521115Y-14005436D02*
X9521115Y-14024484D01*
X9654448Y-13824484D02*
X9673496Y-13824484D01*
X9673496Y-13824484D02*
X9692544Y-13834008D01*
X9692544Y-13834008D02*
X9702068Y-13843531D01*
X9702068Y-13843531D02*
X9711591Y-13862579D01*
X9711591Y-13862579D02*
X9721115Y-13900674D01*
X9721115Y-13900674D02*
X9721115Y-13948293D01*
X9721115Y-13948293D02*
X9711591Y-13986388D01*
X9711591Y-13986388D02*
X9702068Y-14005436D01*
X9702068Y-14005436D02*
X9692544Y-14014960D01*
X9692544Y-14014960D02*
X9673496Y-14024484D01*
X9673496Y-14024484D02*
X9654448Y-14024484D01*
X9654448Y-14024484D02*
X9635401Y-14014960D01*
X9635401Y-14014960D02*
X9625877Y-14005436D01*
X9625877Y-14005436D02*
X9616353Y-13986388D01*
X9616353Y-13986388D02*
X9606829Y-13948293D01*
X9606829Y-13948293D02*
X9606829Y-13900674D01*
X9606829Y-13900674D02*
X9616353Y-13862579D01*
X9616353Y-13862579D02*
X9625877Y-13843531D01*
X9625877Y-13843531D02*
X9635401Y-13834008D01*
X9635401Y-13834008D02*
X9654448Y-13824484D01*
X9787782Y-13824484D02*
X9921115Y-13824484D01*
X9921115Y-13824484D02*
X9835401Y-14024484D01*
X10035401Y-13824484D02*
X10054449Y-13824484D01*
X10054449Y-13824484D02*
X10073496Y-13834008D01*
X10073496Y-13834008D02*
X10083020Y-13843531D01*
X10083020Y-13843531D02*
X10092544Y-13862579D01*
X10092544Y-13862579D02*
X10102068Y-13900674D01*
X10102068Y-13900674D02*
X10102068Y-13948293D01*
X10102068Y-13948293D02*
X10092544Y-13986388D01*
X10092544Y-13986388D02*
X10083020Y-14005436D01*
X10083020Y-14005436D02*
X10073496Y-14014960D01*
X10073496Y-14014960D02*
X10054449Y-14024484D01*
X10054449Y-14024484D02*
X10035401Y-14024484D01*
X10035401Y-14024484D02*
X10016353Y-14014960D01*
X10016353Y-14014960D02*
X10006829Y-14005436D01*
X10006829Y-14005436D02*
X9997306Y-13986388D01*
X9997306Y-13986388D02*
X9987782Y-13948293D01*
X9987782Y-13948293D02*
X9987782Y-13900674D01*
X9987782Y-13900674D02*
X9997306Y-13862579D01*
X9997306Y-13862579D02*
X10006829Y-13843531D01*
X10006829Y-13843531D02*
X10016353Y-13834008D01*
X10016353Y-13834008D02*
X10035401Y-13824484D01*
X10197306Y-14024484D02*
X10235401Y-14024484D01*
X10235401Y-14024484D02*
X10254449Y-14014960D01*
X10254449Y-14014960D02*
X10263972Y-14005436D01*
X10263972Y-14005436D02*
X10283020Y-13976865D01*
X10283020Y-13976865D02*
X10292544Y-13938769D01*
X10292544Y-13938769D02*
X10292544Y-13862579D01*
X10292544Y-13862579D02*
X10283020Y-13843531D01*
X10283020Y-13843531D02*
X10273496Y-13834008D01*
X10273496Y-13834008D02*
X10254449Y-13824484D01*
X10254449Y-13824484D02*
X10216353Y-13824484D01*
X10216353Y-13824484D02*
X10197306Y-13834008D01*
X10197306Y-13834008D02*
X10187782Y-13843531D01*
X10187782Y-13843531D02*
X10178258Y-13862579D01*
X10178258Y-13862579D02*
X10178258Y-13910198D01*
X10178258Y-13910198D02*
X10187782Y-13929246D01*
X10187782Y-13929246D02*
X10197306Y-13938769D01*
X10197306Y-13938769D02*
X10216353Y-13948293D01*
X10216353Y-13948293D02*
X10254449Y-13948293D01*
X10254449Y-13948293D02*
X10273496Y-13938769D01*
X10273496Y-13938769D02*
X10283020Y-13929246D01*
X10283020Y-13929246D02*
X10292544Y-13910198D01*
X10368734Y-13824484D02*
X10368734Y-13862579D01*
X10444925Y-13824484D02*
X10444925Y-13862579D01*
X10740163Y-14100674D02*
X10730639Y-14091150D01*
X10730639Y-14091150D02*
X10711591Y-14062579D01*
X10711591Y-14062579D02*
X10702068Y-14043531D01*
X10702068Y-14043531D02*
X10692544Y-14014960D01*
X10692544Y-14014960D02*
X10683020Y-13967341D01*
X10683020Y-13967341D02*
X10683020Y-13929246D01*
X10683020Y-13929246D02*
X10692544Y-13881627D01*
X10692544Y-13881627D02*
X10702068Y-13853055D01*
X10702068Y-13853055D02*
X10711591Y-13834008D01*
X10711591Y-13834008D02*
X10730639Y-13805436D01*
X10730639Y-13805436D02*
X10740163Y-13795912D01*
X10902068Y-13824484D02*
X10863972Y-13824484D01*
X10863972Y-13824484D02*
X10844925Y-13834008D01*
X10844925Y-13834008D02*
X10835401Y-13843531D01*
X10835401Y-13843531D02*
X10816353Y-13872103D01*
X10816353Y-13872103D02*
X10806830Y-13910198D01*
X10806830Y-13910198D02*
X10806830Y-13986388D01*
X10806830Y-13986388D02*
X10816353Y-14005436D01*
X10816353Y-14005436D02*
X10825877Y-14014960D01*
X10825877Y-14014960D02*
X10844925Y-14024484D01*
X10844925Y-14024484D02*
X10883020Y-14024484D01*
X10883020Y-14024484D02*
X10902068Y-14014960D01*
X10902068Y-14014960D02*
X10911591Y-14005436D01*
X10911591Y-14005436D02*
X10921115Y-13986388D01*
X10921115Y-13986388D02*
X10921115Y-13938769D01*
X10921115Y-13938769D02*
X10911591Y-13919722D01*
X10911591Y-13919722D02*
X10902068Y-13910198D01*
X10902068Y-13910198D02*
X10883020Y-13900674D01*
X10883020Y-13900674D02*
X10844925Y-13900674D01*
X10844925Y-13900674D02*
X10825877Y-13910198D01*
X10825877Y-13910198D02*
X10816353Y-13919722D01*
X10816353Y-13919722D02*
X10806830Y-13938769D01*
X11159211Y-14024484D02*
X11159211Y-13824484D01*
X11244925Y-14024484D02*
X11244925Y-13919722D01*
X11244925Y-13919722D02*
X11235401Y-13900674D01*
X11235401Y-13900674D02*
X11216353Y-13891150D01*
X11216353Y-13891150D02*
X11187782Y-13891150D01*
X11187782Y-13891150D02*
X11168734Y-13900674D01*
X11168734Y-13900674D02*
X11159211Y-13910198D01*
X11368734Y-14024484D02*
X11349687Y-14014960D01*
X11349687Y-14014960D02*
X11340163Y-14005436D01*
X11340163Y-14005436D02*
X11330639Y-13986388D01*
X11330639Y-13986388D02*
X11330639Y-13929246D01*
X11330639Y-13929246D02*
X11340163Y-13910198D01*
X11340163Y-13910198D02*
X11349687Y-13900674D01*
X11349687Y-13900674D02*
X11368734Y-13891150D01*
X11368734Y-13891150D02*
X11397306Y-13891150D01*
X11397306Y-13891150D02*
X11416353Y-13900674D01*
X11416353Y-13900674D02*
X11425877Y-13910198D01*
X11425877Y-13910198D02*
X11435401Y-13929246D01*
X11435401Y-13929246D02*
X11435401Y-13986388D01*
X11435401Y-13986388D02*
X11425877Y-14005436D01*
X11425877Y-14005436D02*
X11416353Y-14014960D01*
X11416353Y-14014960D02*
X11397306Y-14024484D01*
X11397306Y-14024484D02*
X11368734Y-14024484D01*
X11549687Y-14024484D02*
X11530639Y-14014960D01*
X11530639Y-14014960D02*
X11521115Y-13995912D01*
X11521115Y-13995912D02*
X11521115Y-13824484D01*
X11702068Y-14014960D02*
X11683020Y-14024484D01*
X11683020Y-14024484D02*
X11644925Y-14024484D01*
X11644925Y-14024484D02*
X11625877Y-14014960D01*
X11625877Y-14014960D02*
X11616353Y-13995912D01*
X11616353Y-13995912D02*
X11616353Y-13919722D01*
X11616353Y-13919722D02*
X11625877Y-13900674D01*
X11625877Y-13900674D02*
X11644925Y-13891150D01*
X11644925Y-13891150D02*
X11683020Y-13891150D01*
X11683020Y-13891150D02*
X11702068Y-13900674D01*
X11702068Y-13900674D02*
X11711591Y-13919722D01*
X11711591Y-13919722D02*
X11711591Y-13938769D01*
X11711591Y-13938769D02*
X11616353Y-13957817D01*
X11787782Y-14014960D02*
X11806830Y-14024484D01*
X11806830Y-14024484D02*
X11844925Y-14024484D01*
X11844925Y-14024484D02*
X11863972Y-14014960D01*
X11863972Y-14014960D02*
X11873496Y-13995912D01*
X11873496Y-13995912D02*
X11873496Y-13986388D01*
X11873496Y-13986388D02*
X11863972Y-13967341D01*
X11863972Y-13967341D02*
X11844925Y-13957817D01*
X11844925Y-13957817D02*
X11816353Y-13957817D01*
X11816353Y-13957817D02*
X11797306Y-13948293D01*
X11797306Y-13948293D02*
X11787782Y-13929246D01*
X11787782Y-13929246D02*
X11787782Y-13919722D01*
X11787782Y-13919722D02*
X11797306Y-13900674D01*
X11797306Y-13900674D02*
X11816353Y-13891150D01*
X11816353Y-13891150D02*
X11844925Y-13891150D01*
X11844925Y-13891150D02*
X11863972Y-13900674D01*
X11940163Y-14100674D02*
X11949687Y-14091150D01*
X11949687Y-14091150D02*
X11968734Y-14062579D01*
X11968734Y-14062579D02*
X11978258Y-14043531D01*
X11978258Y-14043531D02*
X11987782Y-14014960D01*
X11987782Y-14014960D02*
X11997306Y-13967341D01*
X11997306Y-13967341D02*
X11997306Y-13929246D01*
X11997306Y-13929246D02*
X11987782Y-13881627D01*
X11987782Y-13881627D02*
X11978258Y-13853055D01*
X11978258Y-13853055D02*
X11968734Y-13834008D01*
X11968734Y-13834008D02*
X11949687Y-13805436D01*
X11949687Y-13805436D02*
X11940163Y-13795912D01*
M02*
