M48
; DRILL file {KiCad 9.0.4} date 2025-10-23T10:28:18-0300
; FORMAT={-:-/ absolute / metric / decimal}
; #@! TF.CreationDate,2025-10-23T10:28:18-03:00
; #@! TF.GenerationSoftware,Kicad,Pcbnew,9.0.4
; #@! TF.FileFunction,Plated,1,2,PTH
FMAT,2
METRIC
; #@! TA.AperFunction,Plated,PTH,ComponentDrill
T1C0.700
; #@! TA.AperFunction,Plated,PTH,ComponentDrill
T2C0.750
; #@! TA.AperFunction,Plated,PTH,ComponentDrill
T3C0.800
; #@! TA.AperFunction,Plated,PTH,ComponentDrill
T4C0.900
; #@! TA.AperFunction,Plated,PTH,ComponentDrill
T5C1.000
; #@! TA.AperFunction,Plated,PTH,ComponentDrill
T6C1.100
; #@! TA.AperFunction,Plated,PTH,ComponentDrill
T7C1.200
; #@! TA.AperFunction,Plated,PTH,ComponentDrill
T8C1.300
; #@! TA.AperFunction,Plated,PTH,ComponentDrill
T9C1.800
%
G90
G05
T1
X84.582Y-41.148
X89.662Y-41.148
X99.19Y-78.87
X106.81Y-78.87
X154.432Y-38.608
X159.512Y-38.608
X161.01Y-90.04
X161.51Y-86.39
X166.09Y-90.04
X166.59Y-86.39
X175.154Y-88.514
X177.524Y-91.244
X177.524Y-96.324
X178.484Y-75.124
X178.484Y-80.204
X180.234Y-88.514
X184.93Y-90.2
X190.01Y-90.2
T2
X176.754Y-84.594
X178.024Y-84.594
X178.054Y-71.374
X179.294Y-84.594
X179.324Y-71.374
X180.594Y-71.374
T3
X87.122Y-41.148
X87.122Y-71.12
X99.15Y-83.0
X100.584Y-88.265
X100.584Y-96.393
X101.69Y-83.0
X104.23Y-83.0
X106.77Y-83.0
X108.93Y-78.87
X108.94Y-53.38
X128.89Y-44.25
X128.89Y-46.79
X128.89Y-49.33
X128.89Y-51.87
X128.89Y-54.41
X128.89Y-56.95
X128.89Y-59.49
X128.89Y-62.03
X128.89Y-64.57
X128.89Y-67.11
X128.89Y-69.65
X128.89Y-72.19
X128.89Y-74.73
X128.89Y-77.27
X128.89Y-79.81
X128.89Y-82.35
X128.89Y-84.89
X128.89Y-87.43
X128.89Y-89.97
X151.75Y-44.25
X151.75Y-46.79
X151.75Y-49.33
X151.75Y-51.87
X151.75Y-54.41
X151.75Y-56.95
X151.75Y-59.49
X151.75Y-62.03
X151.75Y-64.57
X151.75Y-67.11
X151.75Y-69.65
X151.75Y-72.19
X151.75Y-74.73
X151.75Y-77.27
X151.75Y-79.81
X151.75Y-82.35
X151.75Y-84.89
X151.75Y-87.43
X151.75Y-89.97
X155.448Y-78.486
X159.004Y-86.36
X166.4Y-81.61
X174.02Y-81.61
X182.524Y-75.564
X182.524Y-85.724
T4
X84.5Y-38.145
X87.04Y-38.145
X89.58Y-38.145
X92.12Y-38.145
X94.66Y-38.145
X97.2Y-38.145
T5
X82.8Y-53.31
X82.8Y-55.85
X82.8Y-58.39
X82.8Y-60.93
X82.8Y-63.47
X82.8Y-66.01
X82.8Y-68.55
X82.8Y-71.09
X82.8Y-73.63
X82.8Y-76.17
X82.8Y-78.71
X82.8Y-81.25
X82.8Y-83.79
X82.8Y-86.33
X96.6Y-73.6
X97.2Y-35.66
X103.7Y-44.5
X106.24Y-44.5
X108.78Y-44.5
X111.32Y-44.5
X113.86Y-44.5
X116.4Y-44.5
X118.94Y-44.5
X121.48Y-44.5
X176.22Y-66.257
X176.22Y-68.797
X176.22Y-71.337
X176.22Y-73.877
X187.94Y-69.38
X187.94Y-71.92
X187.94Y-74.46
X187.94Y-77.0
T6
X168.402Y-99.314
X170.942Y-99.314
X173.482Y-99.314
T7
X126.49Y-101.67
X126.49Y-106.67
X134.5Y-34.0
X134.5Y-39.0
X138.99Y-101.67
X138.99Y-106.67
X143.73Y-101.73
X143.73Y-106.73
X147.0Y-34.0
X147.0Y-39.0
X156.23Y-101.73
X156.23Y-106.73
T8
X161.63Y-60.7
X161.63Y-65.9
X161.63Y-76.0
X161.63Y-81.2
T9
X186.09Y-60.14
X186.09Y-64.1
X186.12Y-42.67
X186.12Y-46.63
X186.12Y-50.59
X186.12Y-54.55
M30
